<mxfile host="app.diagrams.net" modified="2024-04-20T16:35:56.277Z" agent="Mozilla/5.0 (Macintosh; Intel Mac OS X 10_15_7) AppleWebKit/537.36 (KHTML, like Gecko) Chrome/124.0.0.0 Safari/537.36" etag="v_ldRjn0XYHxz0TOfbJk" version="24.2.5" type="github" pages="9">
  <diagram name="1" id="Ymmz0jOcj70GcLxmy2Dk">
    <mxGraphModel dx="2245" dy="1076" grid="1" gridSize="10" guides="1" tooltips="1" connect="1" arrows="1" fold="1" page="1" pageScale="1" pageWidth="850" pageHeight="1100" math="0" shadow="0">
      <root>
        <mxCell id="0" />
        <mxCell id="1" parent="0" />
        <mxCell id="Au-cjiK0XcctOLfJWjcl-6" value="" style="group" vertex="1" connectable="0" parent="1">
          <mxGeometry x="90" y="80" width="150" height="40" as="geometry" />
        </mxCell>
        <mxCell id="Au-cjiK0XcctOLfJWjcl-4" value="" style="rounded=0;whiteSpace=wrap;html=1;" vertex="1" parent="Au-cjiK0XcctOLfJWjcl-6">
          <mxGeometry x="30" width="120" height="40" as="geometry" />
        </mxCell>
        <mxCell id="Au-cjiK0XcctOLfJWjcl-5" value="0" style="text;html=1;align=center;verticalAlign=middle;resizable=0;points=[];autosize=1;strokeColor=none;fillColor=none;" vertex="1" parent="Au-cjiK0XcctOLfJWjcl-6">
          <mxGeometry y="5" width="30" height="30" as="geometry" />
        </mxCell>
        <mxCell id="Au-cjiK0XcctOLfJWjcl-7" value="" style="group" vertex="1" connectable="0" parent="1">
          <mxGeometry x="90" y="140" width="150" height="40" as="geometry" />
        </mxCell>
        <mxCell id="Au-cjiK0XcctOLfJWjcl-8" value="" style="rounded=0;whiteSpace=wrap;html=1;" vertex="1" parent="Au-cjiK0XcctOLfJWjcl-7">
          <mxGeometry x="30" width="120" height="40" as="geometry" />
        </mxCell>
        <mxCell id="Au-cjiK0XcctOLfJWjcl-9" value="1" style="text;html=1;align=center;verticalAlign=middle;resizable=0;points=[];autosize=1;strokeColor=none;fillColor=none;" vertex="1" parent="Au-cjiK0XcctOLfJWjcl-7">
          <mxGeometry y="5" width="30" height="30" as="geometry" />
        </mxCell>
        <mxCell id="Au-cjiK0XcctOLfJWjcl-10" value="" style="group" vertex="1" connectable="0" parent="1">
          <mxGeometry x="90" y="200" width="150" height="40" as="geometry" />
        </mxCell>
        <mxCell id="Au-cjiK0XcctOLfJWjcl-11" value="" style="rounded=0;whiteSpace=wrap;html=1;" vertex="1" parent="Au-cjiK0XcctOLfJWjcl-10">
          <mxGeometry x="30" width="120" height="40" as="geometry" />
        </mxCell>
        <mxCell id="Au-cjiK0XcctOLfJWjcl-12" value="2" style="text;html=1;align=center;verticalAlign=middle;resizable=0;points=[];autosize=1;strokeColor=none;fillColor=none;" vertex="1" parent="Au-cjiK0XcctOLfJWjcl-10">
          <mxGeometry y="5" width="30" height="30" as="geometry" />
        </mxCell>
        <mxCell id="Au-cjiK0XcctOLfJWjcl-13" value="" style="group" vertex="1" connectable="0" parent="1">
          <mxGeometry x="90" y="320" width="150" height="40" as="geometry" />
        </mxCell>
        <mxCell id="Au-cjiK0XcctOLfJWjcl-14" value="" style="rounded=0;whiteSpace=wrap;html=1;" vertex="1" parent="Au-cjiK0XcctOLfJWjcl-13">
          <mxGeometry x="30" width="120" height="40" as="geometry" />
        </mxCell>
        <mxCell id="Au-cjiK0XcctOLfJWjcl-15" value="4" style="text;html=1;align=center;verticalAlign=middle;resizable=0;points=[];autosize=1;strokeColor=none;fillColor=none;" vertex="1" parent="Au-cjiK0XcctOLfJWjcl-13">
          <mxGeometry y="5" width="30" height="30" as="geometry" />
        </mxCell>
        <mxCell id="Au-cjiK0XcctOLfJWjcl-17" value="" style="group" vertex="1" connectable="0" parent="1">
          <mxGeometry x="90" y="270" width="150" height="40" as="geometry" />
        </mxCell>
        <mxCell id="Au-cjiK0XcctOLfJWjcl-18" value="" style="rounded=0;whiteSpace=wrap;html=1;" vertex="1" parent="Au-cjiK0XcctOLfJWjcl-17">
          <mxGeometry x="30" y="-10" width="120" height="40" as="geometry" />
        </mxCell>
        <mxCell id="Au-cjiK0XcctOLfJWjcl-19" value="3" style="text;html=1;align=center;verticalAlign=middle;resizable=0;points=[];autosize=1;strokeColor=none;fillColor=none;" vertex="1" parent="Au-cjiK0XcctOLfJWjcl-17">
          <mxGeometry y="5" width="30" height="30" as="geometry" />
        </mxCell>
        <mxCell id="Au-cjiK0XcctOLfJWjcl-20" value="" style="group" vertex="1" connectable="0" parent="1">
          <mxGeometry x="90" y="380" width="150" height="40" as="geometry" />
        </mxCell>
        <mxCell id="Au-cjiK0XcctOLfJWjcl-21" value="" style="rounded=0;whiteSpace=wrap;html=1;" vertex="1" parent="Au-cjiK0XcctOLfJWjcl-20">
          <mxGeometry x="30" width="120" height="40" as="geometry" />
        </mxCell>
        <mxCell id="Au-cjiK0XcctOLfJWjcl-22" value="5" style="text;html=1;align=center;verticalAlign=middle;resizable=0;points=[];autosize=1;strokeColor=none;fillColor=none;" vertex="1" parent="Au-cjiK0XcctOLfJWjcl-20">
          <mxGeometry y="5" width="30" height="30" as="geometry" />
        </mxCell>
        <mxCell id="Au-cjiK0XcctOLfJWjcl-23" value="" style="group" vertex="1" connectable="0" parent="1">
          <mxGeometry x="90" y="440" width="150" height="40" as="geometry" />
        </mxCell>
        <mxCell id="Au-cjiK0XcctOLfJWjcl-24" value="" style="rounded=0;whiteSpace=wrap;html=1;" vertex="1" parent="Au-cjiK0XcctOLfJWjcl-23">
          <mxGeometry x="30" width="120" height="40" as="geometry" />
        </mxCell>
        <mxCell id="Au-cjiK0XcctOLfJWjcl-25" value="6" style="text;html=1;align=center;verticalAlign=middle;resizable=0;points=[];autosize=1;strokeColor=none;fillColor=none;" vertex="1" parent="Au-cjiK0XcctOLfJWjcl-23">
          <mxGeometry y="5" width="30" height="30" as="geometry" />
        </mxCell>
        <mxCell id="Au-cjiK0XcctOLfJWjcl-26" value="" style="group" vertex="1" connectable="0" parent="1">
          <mxGeometry x="90" y="500" width="150" height="40" as="geometry" />
        </mxCell>
        <mxCell id="Au-cjiK0XcctOLfJWjcl-27" value="" style="rounded=0;whiteSpace=wrap;html=1;" vertex="1" parent="Au-cjiK0XcctOLfJWjcl-26">
          <mxGeometry x="30" width="120" height="40" as="geometry" />
        </mxCell>
        <mxCell id="Au-cjiK0XcctOLfJWjcl-28" value="7" style="text;html=1;align=center;verticalAlign=middle;resizable=0;points=[];autosize=1;strokeColor=none;fillColor=none;" vertex="1" parent="Au-cjiK0XcctOLfJWjcl-26">
          <mxGeometry y="5" width="30" height="30" as="geometry" />
        </mxCell>
        <mxCell id="Au-cjiK0XcctOLfJWjcl-29" value="" style="group" vertex="1" connectable="0" parent="1">
          <mxGeometry x="90" y="620" width="150" height="40" as="geometry" />
        </mxCell>
        <mxCell id="Au-cjiK0XcctOLfJWjcl-30" value="" style="rounded=0;whiteSpace=wrap;html=1;" vertex="1" parent="Au-cjiK0XcctOLfJWjcl-29">
          <mxGeometry x="30" width="120" height="40" as="geometry" />
        </mxCell>
        <mxCell id="Au-cjiK0XcctOLfJWjcl-31" value="9" style="text;html=1;align=center;verticalAlign=middle;resizable=0;points=[];autosize=1;strokeColor=none;fillColor=none;" vertex="1" parent="Au-cjiK0XcctOLfJWjcl-29">
          <mxGeometry y="5" width="30" height="30" as="geometry" />
        </mxCell>
        <mxCell id="Au-cjiK0XcctOLfJWjcl-32" value="" style="group" vertex="1" connectable="0" parent="1">
          <mxGeometry x="90" y="570" width="150" height="40" as="geometry" />
        </mxCell>
        <mxCell id="Au-cjiK0XcctOLfJWjcl-33" value="" style="rounded=0;whiteSpace=wrap;html=1;" vertex="1" parent="Au-cjiK0XcctOLfJWjcl-32">
          <mxGeometry x="30" y="-10" width="120" height="40" as="geometry" />
        </mxCell>
        <mxCell id="Au-cjiK0XcctOLfJWjcl-34" value="8" style="text;html=1;align=center;verticalAlign=middle;resizable=0;points=[];autosize=1;strokeColor=none;fillColor=none;" vertex="1" parent="Au-cjiK0XcctOLfJWjcl-32">
          <mxGeometry y="5" width="30" height="30" as="geometry" />
        </mxCell>
        <mxCell id="Au-cjiK0XcctOLfJWjcl-35" value="Tamanha = 10" style="text;html=1;align=center;verticalAlign=middle;resizable=0;points=[];autosize=1;strokeColor=none;fillColor=none;" vertex="1" parent="1">
          <mxGeometry x="30" y="10" width="100" height="30" as="geometry" />
        </mxCell>
        <mxCell id="Au-cjiK0XcctOLfJWjcl-36" value="FÃ³rmula hash: %10 (mod)" style="text;html=1;align=center;verticalAlign=middle;resizable=0;points=[];autosize=1;strokeColor=none;fillColor=none;" vertex="1" parent="1">
          <mxGeometry x="160" y="10" width="160" height="30" as="geometry" />
        </mxCell>
      </root>
    </mxGraphModel>
  </diagram>
  <diagram name="2" id="5JosuthwJyhtUClP2jZU">
    <mxGraphModel dx="2245" dy="1076" grid="1" gridSize="10" guides="1" tooltips="1" connect="1" arrows="1" fold="1" page="1" pageScale="1" pageWidth="850" pageHeight="1100" math="0" shadow="0">
      <root>
        <mxCell id="xGoU9C1JOkY9Xilg0sic-0" />
        <mxCell id="xGoU9C1JOkY9Xilg0sic-1" parent="xGoU9C1JOkY9Xilg0sic-0" />
        <mxCell id="xGoU9C1JOkY9Xilg0sic-2" value="" style="group" vertex="1" connectable="0" parent="xGoU9C1JOkY9Xilg0sic-1">
          <mxGeometry x="90" y="80" width="150" height="40" as="geometry" />
        </mxCell>
        <mxCell id="xGoU9C1JOkY9Xilg0sic-3" value="" style="rounded=0;whiteSpace=wrap;html=1;" vertex="1" parent="xGoU9C1JOkY9Xilg0sic-2">
          <mxGeometry x="30" width="120" height="40" as="geometry" />
        </mxCell>
        <mxCell id="xGoU9C1JOkY9Xilg0sic-4" value="0" style="text;html=1;align=center;verticalAlign=middle;resizable=0;points=[];autosize=1;strokeColor=none;fillColor=none;" vertex="1" parent="xGoU9C1JOkY9Xilg0sic-2">
          <mxGeometry y="5" width="30" height="30" as="geometry" />
        </mxCell>
        <mxCell id="xGoU9C1JOkY9Xilg0sic-5" value="" style="group" vertex="1" connectable="0" parent="xGoU9C1JOkY9Xilg0sic-1">
          <mxGeometry x="90" y="140" width="150" height="40" as="geometry" />
        </mxCell>
        <mxCell id="xGoU9C1JOkY9Xilg0sic-6" value="" style="rounded=0;whiteSpace=wrap;html=1;" vertex="1" parent="xGoU9C1JOkY9Xilg0sic-5">
          <mxGeometry x="30" width="120" height="40" as="geometry" />
        </mxCell>
        <mxCell id="xGoU9C1JOkY9Xilg0sic-7" value="1" style="text;html=1;align=center;verticalAlign=middle;resizable=0;points=[];autosize=1;strokeColor=none;fillColor=none;" vertex="1" parent="xGoU9C1JOkY9Xilg0sic-5">
          <mxGeometry y="5" width="30" height="30" as="geometry" />
        </mxCell>
        <mxCell id="xGoU9C1JOkY9Xilg0sic-8" value="" style="group" vertex="1" connectable="0" parent="xGoU9C1JOkY9Xilg0sic-1">
          <mxGeometry x="90" y="200" width="150" height="40" as="geometry" />
        </mxCell>
        <mxCell id="xGoU9C1JOkY9Xilg0sic-9" value="" style="rounded=0;whiteSpace=wrap;html=1;" vertex="1" parent="xGoU9C1JOkY9Xilg0sic-8">
          <mxGeometry x="30" width="120" height="40" as="geometry" />
        </mxCell>
        <mxCell id="xGoU9C1JOkY9Xilg0sic-10" value="2" style="text;html=1;align=center;verticalAlign=middle;resizable=0;points=[];autosize=1;strokeColor=none;fillColor=none;" vertex="1" parent="xGoU9C1JOkY9Xilg0sic-8">
          <mxGeometry y="5" width="30" height="30" as="geometry" />
        </mxCell>
        <mxCell id="xGoU9C1JOkY9Xilg0sic-11" value="" style="group" vertex="1" connectable="0" parent="xGoU9C1JOkY9Xilg0sic-1">
          <mxGeometry x="90" y="320" width="150" height="40" as="geometry" />
        </mxCell>
        <mxCell id="xGoU9C1JOkY9Xilg0sic-12" value="" style="rounded=0;whiteSpace=wrap;html=1;" vertex="1" parent="xGoU9C1JOkY9Xilg0sic-11">
          <mxGeometry x="30" width="120" height="40" as="geometry" />
        </mxCell>
        <mxCell id="xGoU9C1JOkY9Xilg0sic-13" value="4" style="text;html=1;align=center;verticalAlign=middle;resizable=0;points=[];autosize=1;strokeColor=none;fillColor=none;" vertex="1" parent="xGoU9C1JOkY9Xilg0sic-11">
          <mxGeometry y="5" width="30" height="30" as="geometry" />
        </mxCell>
        <mxCell id="xGoU9C1JOkY9Xilg0sic-14" value="" style="group" vertex="1" connectable="0" parent="xGoU9C1JOkY9Xilg0sic-1">
          <mxGeometry x="90" y="270" width="150" height="40" as="geometry" />
        </mxCell>
        <mxCell id="xGoU9C1JOkY9Xilg0sic-15" value="" style="rounded=0;whiteSpace=wrap;html=1;" vertex="1" parent="xGoU9C1JOkY9Xilg0sic-14">
          <mxGeometry x="30" y="-10" width="120" height="40" as="geometry" />
        </mxCell>
        <mxCell id="xGoU9C1JOkY9Xilg0sic-16" value="3" style="text;html=1;align=center;verticalAlign=middle;resizable=0;points=[];autosize=1;strokeColor=none;fillColor=none;" vertex="1" parent="xGoU9C1JOkY9Xilg0sic-14">
          <mxGeometry y="5" width="30" height="30" as="geometry" />
        </mxCell>
        <mxCell id="xGoU9C1JOkY9Xilg0sic-17" value="" style="group" vertex="1" connectable="0" parent="xGoU9C1JOkY9Xilg0sic-1">
          <mxGeometry x="90" y="380" width="150" height="40" as="geometry" />
        </mxCell>
        <mxCell id="xGoU9C1JOkY9Xilg0sic-18" value="" style="rounded=0;whiteSpace=wrap;html=1;" vertex="1" parent="xGoU9C1JOkY9Xilg0sic-17">
          <mxGeometry x="30" width="120" height="40" as="geometry" />
        </mxCell>
        <mxCell id="xGoU9C1JOkY9Xilg0sic-19" value="5" style="text;html=1;align=center;verticalAlign=middle;resizable=0;points=[];autosize=1;strokeColor=none;fillColor=none;" vertex="1" parent="xGoU9C1JOkY9Xilg0sic-17">
          <mxGeometry y="5" width="30" height="30" as="geometry" />
        </mxCell>
        <mxCell id="-YLZapwifpSNBB9KTC3G-0" value="385" style="text;html=1;align=center;verticalAlign=middle;resizable=0;points=[];autosize=1;strokeColor=none;fillColor=none;" vertex="1" parent="xGoU9C1JOkY9Xilg0sic-17">
          <mxGeometry x="70" y="5" width="40" height="30" as="geometry" />
        </mxCell>
        <mxCell id="xGoU9C1JOkY9Xilg0sic-20" value="" style="group" vertex="1" connectable="0" parent="xGoU9C1JOkY9Xilg0sic-1">
          <mxGeometry x="90" y="440" width="150" height="40" as="geometry" />
        </mxCell>
        <mxCell id="xGoU9C1JOkY9Xilg0sic-21" value="" style="rounded=0;whiteSpace=wrap;html=1;" vertex="1" parent="xGoU9C1JOkY9Xilg0sic-20">
          <mxGeometry x="30" width="120" height="40" as="geometry" />
        </mxCell>
        <mxCell id="xGoU9C1JOkY9Xilg0sic-22" value="6" style="text;html=1;align=center;verticalAlign=middle;resizable=0;points=[];autosize=1;strokeColor=none;fillColor=none;" vertex="1" parent="xGoU9C1JOkY9Xilg0sic-20">
          <mxGeometry y="5" width="30" height="30" as="geometry" />
        </mxCell>
        <mxCell id="xGoU9C1JOkY9Xilg0sic-23" value="" style="group" vertex="1" connectable="0" parent="xGoU9C1JOkY9Xilg0sic-1">
          <mxGeometry x="90" y="500" width="150" height="40" as="geometry" />
        </mxCell>
        <mxCell id="xGoU9C1JOkY9Xilg0sic-24" value="" style="rounded=0;whiteSpace=wrap;html=1;" vertex="1" parent="xGoU9C1JOkY9Xilg0sic-23">
          <mxGeometry x="30" width="120" height="40" as="geometry" />
        </mxCell>
        <mxCell id="xGoU9C1JOkY9Xilg0sic-25" value="7" style="text;html=1;align=center;verticalAlign=middle;resizable=0;points=[];autosize=1;strokeColor=none;fillColor=none;" vertex="1" parent="xGoU9C1JOkY9Xilg0sic-23">
          <mxGeometry y="5" width="30" height="30" as="geometry" />
        </mxCell>
        <mxCell id="xGoU9C1JOkY9Xilg0sic-26" value="" style="group" vertex="1" connectable="0" parent="xGoU9C1JOkY9Xilg0sic-1">
          <mxGeometry x="90" y="620" width="150" height="40" as="geometry" />
        </mxCell>
        <mxCell id="xGoU9C1JOkY9Xilg0sic-27" value="" style="rounded=0;whiteSpace=wrap;html=1;" vertex="1" parent="xGoU9C1JOkY9Xilg0sic-26">
          <mxGeometry x="30" width="120" height="40" as="geometry" />
        </mxCell>
        <mxCell id="xGoU9C1JOkY9Xilg0sic-28" value="9" style="text;html=1;align=center;verticalAlign=middle;resizable=0;points=[];autosize=1;strokeColor=none;fillColor=none;" vertex="1" parent="xGoU9C1JOkY9Xilg0sic-26">
          <mxGeometry y="5" width="30" height="30" as="geometry" />
        </mxCell>
        <mxCell id="xGoU9C1JOkY9Xilg0sic-29" value="" style="group" vertex="1" connectable="0" parent="xGoU9C1JOkY9Xilg0sic-1">
          <mxGeometry x="90" y="570" width="150" height="40" as="geometry" />
        </mxCell>
        <mxCell id="xGoU9C1JOkY9Xilg0sic-30" value="" style="rounded=0;whiteSpace=wrap;html=1;" vertex="1" parent="xGoU9C1JOkY9Xilg0sic-29">
          <mxGeometry x="30" y="-10" width="120" height="40" as="geometry" />
        </mxCell>
        <mxCell id="xGoU9C1JOkY9Xilg0sic-31" value="8" style="text;html=1;align=center;verticalAlign=middle;resizable=0;points=[];autosize=1;strokeColor=none;fillColor=none;" vertex="1" parent="xGoU9C1JOkY9Xilg0sic-29">
          <mxGeometry y="5" width="30" height="30" as="geometry" />
        </mxCell>
        <mxCell id="xGoU9C1JOkY9Xilg0sic-32" value="Tamanha = 10" style="text;html=1;align=center;verticalAlign=middle;resizable=0;points=[];autosize=1;strokeColor=none;fillColor=none;" vertex="1" parent="xGoU9C1JOkY9Xilg0sic-1">
          <mxGeometry x="40" y="10" width="100" height="30" as="geometry" />
        </mxCell>
        <mxCell id="xGoU9C1JOkY9Xilg0sic-33" value="FÃ³rmula hash: %10 (mod)" style="text;html=1;align=center;verticalAlign=middle;resizable=0;points=[];autosize=1;strokeColor=none;fillColor=none;" vertex="1" parent="xGoU9C1JOkY9Xilg0sic-1">
          <mxGeometry x="160" y="10" width="160" height="30" as="geometry" />
        </mxCell>
      </root>
    </mxGraphModel>
  </diagram>
  <diagram name="3" id="ztPgm_QTr7NY9_PsJbGM">
    <mxGraphModel dx="1235" dy="592" grid="1" gridSize="10" guides="1" tooltips="1" connect="1" arrows="1" fold="1" page="1" pageScale="1" pageWidth="850" pageHeight="1100" math="0" shadow="0">
      <root>
        <mxCell id="QUMRhh-y77iKR9c2RwfY-0" />
        <mxCell id="QUMRhh-y77iKR9c2RwfY-1" parent="QUMRhh-y77iKR9c2RwfY-0" />
        <mxCell id="QUMRhh-y77iKR9c2RwfY-2" value="" style="group" vertex="1" connectable="0" parent="QUMRhh-y77iKR9c2RwfY-1">
          <mxGeometry x="90" y="80" width="150" height="40" as="geometry" />
        </mxCell>
        <mxCell id="QUMRhh-y77iKR9c2RwfY-3" value="" style="rounded=0;whiteSpace=wrap;html=1;" vertex="1" parent="QUMRhh-y77iKR9c2RwfY-2">
          <mxGeometry x="30" width="120" height="40" as="geometry" />
        </mxCell>
        <mxCell id="QUMRhh-y77iKR9c2RwfY-4" value="0" style="text;html=1;align=center;verticalAlign=middle;resizable=0;points=[];autosize=1;strokeColor=none;fillColor=none;" vertex="1" parent="QUMRhh-y77iKR9c2RwfY-2">
          <mxGeometry y="5" width="30" height="30" as="geometry" />
        </mxCell>
        <mxCell id="QUMRhh-y77iKR9c2RwfY-5" value="" style="group" vertex="1" connectable="0" parent="QUMRhh-y77iKR9c2RwfY-1">
          <mxGeometry x="90" y="140" width="150" height="40" as="geometry" />
        </mxCell>
        <mxCell id="QUMRhh-y77iKR9c2RwfY-6" value="" style="rounded=0;whiteSpace=wrap;html=1;" vertex="1" parent="QUMRhh-y77iKR9c2RwfY-5">
          <mxGeometry x="30" width="120" height="40" as="geometry" />
        </mxCell>
        <mxCell id="QUMRhh-y77iKR9c2RwfY-7" value="1" style="text;html=1;align=center;verticalAlign=middle;resizable=0;points=[];autosize=1;strokeColor=none;fillColor=none;" vertex="1" parent="QUMRhh-y77iKR9c2RwfY-5">
          <mxGeometry y="5" width="30" height="30" as="geometry" />
        </mxCell>
        <mxCell id="QUMRhh-y77iKR9c2RwfY-8" value="" style="group" vertex="1" connectable="0" parent="QUMRhh-y77iKR9c2RwfY-1">
          <mxGeometry x="90" y="200" width="150" height="40" as="geometry" />
        </mxCell>
        <mxCell id="QUMRhh-y77iKR9c2RwfY-9" value="" style="rounded=0;whiteSpace=wrap;html=1;" vertex="1" parent="QUMRhh-y77iKR9c2RwfY-8">
          <mxGeometry x="30" width="120" height="40" as="geometry" />
        </mxCell>
        <mxCell id="QUMRhh-y77iKR9c2RwfY-10" value="2" style="text;html=1;align=center;verticalAlign=middle;resizable=0;points=[];autosize=1;strokeColor=none;fillColor=none;" vertex="1" parent="QUMRhh-y77iKR9c2RwfY-8">
          <mxGeometry y="5" width="30" height="30" as="geometry" />
        </mxCell>
        <mxCell id="QUMRhh-y77iKR9c2RwfY-11" value="" style="group" vertex="1" connectable="0" parent="QUMRhh-y77iKR9c2RwfY-1">
          <mxGeometry x="90" y="320" width="150" height="40" as="geometry" />
        </mxCell>
        <mxCell id="QUMRhh-y77iKR9c2RwfY-12" value="" style="rounded=0;whiteSpace=wrap;html=1;" vertex="1" parent="QUMRhh-y77iKR9c2RwfY-11">
          <mxGeometry x="30" width="120" height="40" as="geometry" />
        </mxCell>
        <mxCell id="QUMRhh-y77iKR9c2RwfY-13" value="4" style="text;html=1;align=center;verticalAlign=middle;resizable=0;points=[];autosize=1;strokeColor=none;fillColor=none;" vertex="1" parent="QUMRhh-y77iKR9c2RwfY-11">
          <mxGeometry y="5" width="30" height="30" as="geometry" />
        </mxCell>
        <mxCell id="QUMRhh-y77iKR9c2RwfY-14" value="" style="group" vertex="1" connectable="0" parent="QUMRhh-y77iKR9c2RwfY-1">
          <mxGeometry x="90" y="270" width="150" height="40" as="geometry" />
        </mxCell>
        <mxCell id="QUMRhh-y77iKR9c2RwfY-15" value="" style="rounded=0;whiteSpace=wrap;html=1;" vertex="1" parent="QUMRhh-y77iKR9c2RwfY-14">
          <mxGeometry x="30" y="-10" width="120" height="40" as="geometry" />
        </mxCell>
        <mxCell id="QUMRhh-y77iKR9c2RwfY-16" value="3" style="text;html=1;align=center;verticalAlign=middle;resizable=0;points=[];autosize=1;strokeColor=none;fillColor=none;" vertex="1" parent="QUMRhh-y77iKR9c2RwfY-14">
          <mxGeometry y="5" width="30" height="30" as="geometry" />
        </mxCell>
        <mxCell id="QUMRhh-y77iKR9c2RwfY-17" value="" style="group" vertex="1" connectable="0" parent="QUMRhh-y77iKR9c2RwfY-1">
          <mxGeometry x="90" y="380" width="150" height="40" as="geometry" />
        </mxCell>
        <mxCell id="QUMRhh-y77iKR9c2RwfY-18" value="" style="rounded=0;whiteSpace=wrap;html=1;" vertex="1" parent="QUMRhh-y77iKR9c2RwfY-17">
          <mxGeometry x="30" width="120" height="40" as="geometry" />
        </mxCell>
        <mxCell id="QUMRhh-y77iKR9c2RwfY-19" value="5" style="text;html=1;align=center;verticalAlign=middle;resizable=0;points=[];autosize=1;strokeColor=none;fillColor=none;" vertex="1" parent="QUMRhh-y77iKR9c2RwfY-17">
          <mxGeometry y="5" width="30" height="30" as="geometry" />
        </mxCell>
        <mxCell id="QUMRhh-y77iKR9c2RwfY-20" value="385" style="text;html=1;align=center;verticalAlign=middle;resizable=0;points=[];autosize=1;strokeColor=none;fillColor=none;" vertex="1" parent="QUMRhh-y77iKR9c2RwfY-17">
          <mxGeometry x="70" y="5" width="40" height="30" as="geometry" />
        </mxCell>
        <mxCell id="QUMRhh-y77iKR9c2RwfY-21" value="" style="group" vertex="1" connectable="0" parent="QUMRhh-y77iKR9c2RwfY-1">
          <mxGeometry x="90" y="440" width="150" height="40" as="geometry" />
        </mxCell>
        <mxCell id="QUMRhh-y77iKR9c2RwfY-22" value="" style="rounded=0;whiteSpace=wrap;html=1;" vertex="1" parent="QUMRhh-y77iKR9c2RwfY-21">
          <mxGeometry x="30" width="120" height="40" as="geometry" />
        </mxCell>
        <mxCell id="QUMRhh-y77iKR9c2RwfY-23" value="6" style="text;html=1;align=center;verticalAlign=middle;resizable=0;points=[];autosize=1;strokeColor=none;fillColor=none;" vertex="1" parent="QUMRhh-y77iKR9c2RwfY-21">
          <mxGeometry y="5" width="30" height="30" as="geometry" />
        </mxCell>
        <mxCell id="QUMRhh-y77iKR9c2RwfY-24" value="" style="group" vertex="1" connectable="0" parent="QUMRhh-y77iKR9c2RwfY-1">
          <mxGeometry x="90" y="500" width="150" height="40" as="geometry" />
        </mxCell>
        <mxCell id="QUMRhh-y77iKR9c2RwfY-25" value="" style="rounded=0;whiteSpace=wrap;html=1;" vertex="1" parent="QUMRhh-y77iKR9c2RwfY-24">
          <mxGeometry x="30" width="120" height="40" as="geometry" />
        </mxCell>
        <mxCell id="QUMRhh-y77iKR9c2RwfY-26" value="7" style="text;html=1;align=center;verticalAlign=middle;resizable=0;points=[];autosize=1;strokeColor=none;fillColor=none;" vertex="1" parent="QUMRhh-y77iKR9c2RwfY-24">
          <mxGeometry y="5" width="30" height="30" as="geometry" />
        </mxCell>
        <mxCell id="QUMRhh-y77iKR9c2RwfY-27" value="" style="group" vertex="1" connectable="0" parent="QUMRhh-y77iKR9c2RwfY-1">
          <mxGeometry x="90" y="620" width="150" height="40" as="geometry" />
        </mxCell>
        <mxCell id="QUMRhh-y77iKR9c2RwfY-28" value="" style="rounded=0;whiteSpace=wrap;html=1;" vertex="1" parent="QUMRhh-y77iKR9c2RwfY-27">
          <mxGeometry x="30" width="120" height="40" as="geometry" />
        </mxCell>
        <mxCell id="QUMRhh-y77iKR9c2RwfY-29" value="9" style="text;html=1;align=center;verticalAlign=middle;resizable=0;points=[];autosize=1;strokeColor=none;fillColor=none;" vertex="1" parent="QUMRhh-y77iKR9c2RwfY-27">
          <mxGeometry y="5" width="30" height="30" as="geometry" />
        </mxCell>
        <mxCell id="QUMRhh-y77iKR9c2RwfY-30" value="" style="group" vertex="1" connectable="0" parent="QUMRhh-y77iKR9c2RwfY-1">
          <mxGeometry x="90" y="570" width="150" height="40" as="geometry" />
        </mxCell>
        <mxCell id="QUMRhh-y77iKR9c2RwfY-31" value="" style="rounded=0;whiteSpace=wrap;html=1;" vertex="1" parent="QUMRhh-y77iKR9c2RwfY-30">
          <mxGeometry x="30" y="-10" width="120" height="40" as="geometry" />
        </mxCell>
        <mxCell id="QUMRhh-y77iKR9c2RwfY-32" value="8" style="text;html=1;align=center;verticalAlign=middle;resizable=0;points=[];autosize=1;strokeColor=none;fillColor=none;" vertex="1" parent="QUMRhh-y77iKR9c2RwfY-30">
          <mxGeometry y="5" width="30" height="30" as="geometry" />
        </mxCell>
        <mxCell id="QUMRhh-y77iKR9c2RwfY-33" value="Tamanha = 10" style="text;html=1;align=center;verticalAlign=middle;resizable=0;points=[];autosize=1;strokeColor=none;fillColor=none;" vertex="1" parent="QUMRhh-y77iKR9c2RwfY-1">
          <mxGeometry x="40" y="10" width="100" height="30" as="geometry" />
        </mxCell>
        <mxCell id="QUMRhh-y77iKR9c2RwfY-34" value="FÃ³rmula hash: %10 (mod)" style="text;html=1;align=center;verticalAlign=middle;resizable=0;points=[];autosize=1;strokeColor=none;fillColor=none;" vertex="1" parent="QUMRhh-y77iKR9c2RwfY-1">
          <mxGeometry x="160" y="10" width="160" height="30" as="geometry" />
        </mxCell>
        <mxCell id="YN14AwB7AmdNimIBXv2Q-1" value="&lt;span style=&quot;text-wrap: nowrap;&quot;&gt;5&lt;/span&gt;" style="whiteSpace=wrap;html=1;aspect=fixed;" vertex="1" parent="QUMRhh-y77iKR9c2RwfY-1">
          <mxGeometry x="270" y="380" width="40" height="40" as="geometry" />
        </mxCell>
        <mxCell id="YN14AwB7AmdNimIBXv2Q-2" style="edgeStyle=orthogonalEdgeStyle;rounded=0;orthogonalLoop=1;jettySize=auto;html=1;" edge="1" parent="QUMRhh-y77iKR9c2RwfY-1" source="QUMRhh-y77iKR9c2RwfY-18" target="YN14AwB7AmdNimIBXv2Q-1">
          <mxGeometry relative="1" as="geometry" />
        </mxCell>
        <mxCell id="VZcxg5-SukwCGQMVy7eC-0" value="AdiÃ§Ã£o" style="text;html=1;align=center;verticalAlign=middle;resizable=0;points=[];autosize=1;strokeColor=none;fillColor=none;" vertex="1" parent="QUMRhh-y77iKR9c2RwfY-1">
          <mxGeometry x="260" y="320" width="60" height="30" as="geometry" />
        </mxCell>
      </root>
    </mxGraphModel>
  </diagram>
  <diagram name="4" id="zKpxgn9xkUZETp6EEbkz">
    <mxGraphModel dx="1235" dy="592" grid="1" gridSize="10" guides="1" tooltips="1" connect="1" arrows="1" fold="1" page="1" pageScale="1" pageWidth="850" pageHeight="1100" math="0" shadow="0">
      <root>
        <mxCell id="WInyjwcGSFLR9HqD_T9U-0" />
        <mxCell id="WInyjwcGSFLR9HqD_T9U-1" parent="WInyjwcGSFLR9HqD_T9U-0" />
        <mxCell id="WInyjwcGSFLR9HqD_T9U-2" value="" style="group" vertex="1" connectable="0" parent="WInyjwcGSFLR9HqD_T9U-1">
          <mxGeometry x="90" y="80" width="150" height="40" as="geometry" />
        </mxCell>
        <mxCell id="WInyjwcGSFLR9HqD_T9U-3" value="" style="rounded=0;whiteSpace=wrap;html=1;" vertex="1" parent="WInyjwcGSFLR9HqD_T9U-2">
          <mxGeometry x="30" width="120" height="40" as="geometry" />
        </mxCell>
        <mxCell id="WInyjwcGSFLR9HqD_T9U-4" value="0" style="text;html=1;align=center;verticalAlign=middle;resizable=0;points=[];autosize=1;strokeColor=none;fillColor=none;" vertex="1" parent="WInyjwcGSFLR9HqD_T9U-2">
          <mxGeometry y="5" width="30" height="30" as="geometry" />
        </mxCell>
        <mxCell id="WInyjwcGSFLR9HqD_T9U-5" value="" style="group" vertex="1" connectable="0" parent="WInyjwcGSFLR9HqD_T9U-1">
          <mxGeometry x="90" y="140" width="150" height="40" as="geometry" />
        </mxCell>
        <mxCell id="WInyjwcGSFLR9HqD_T9U-6" value="" style="rounded=0;whiteSpace=wrap;html=1;" vertex="1" parent="WInyjwcGSFLR9HqD_T9U-5">
          <mxGeometry x="30" width="120" height="40" as="geometry" />
        </mxCell>
        <mxCell id="WInyjwcGSFLR9HqD_T9U-7" value="1" style="text;html=1;align=center;verticalAlign=middle;resizable=0;points=[];autosize=1;strokeColor=none;fillColor=none;" vertex="1" parent="WInyjwcGSFLR9HqD_T9U-5">
          <mxGeometry y="5" width="30" height="30" as="geometry" />
        </mxCell>
        <mxCell id="WInyjwcGSFLR9HqD_T9U-8" value="" style="group" vertex="1" connectable="0" parent="WInyjwcGSFLR9HqD_T9U-1">
          <mxGeometry x="90" y="200" width="150" height="40" as="geometry" />
        </mxCell>
        <mxCell id="WInyjwcGSFLR9HqD_T9U-9" value="" style="rounded=0;whiteSpace=wrap;html=1;" vertex="1" parent="WInyjwcGSFLR9HqD_T9U-8">
          <mxGeometry x="30" width="120" height="40" as="geometry" />
        </mxCell>
        <mxCell id="WInyjwcGSFLR9HqD_T9U-10" value="2" style="text;html=1;align=center;verticalAlign=middle;resizable=0;points=[];autosize=1;strokeColor=none;fillColor=none;" vertex="1" parent="WInyjwcGSFLR9HqD_T9U-8">
          <mxGeometry y="5" width="30" height="30" as="geometry" />
        </mxCell>
        <mxCell id="WInyjwcGSFLR9HqD_T9U-11" value="" style="group" vertex="1" connectable="0" parent="WInyjwcGSFLR9HqD_T9U-1">
          <mxGeometry x="90" y="320" width="150" height="40" as="geometry" />
        </mxCell>
        <mxCell id="WInyjwcGSFLR9HqD_T9U-12" value="" style="rounded=0;whiteSpace=wrap;html=1;" vertex="1" parent="WInyjwcGSFLR9HqD_T9U-11">
          <mxGeometry x="30" width="120" height="40" as="geometry" />
        </mxCell>
        <mxCell id="WInyjwcGSFLR9HqD_T9U-13" value="4" style="text;html=1;align=center;verticalAlign=middle;resizable=0;points=[];autosize=1;strokeColor=none;fillColor=none;" vertex="1" parent="WInyjwcGSFLR9HqD_T9U-11">
          <mxGeometry y="5" width="30" height="30" as="geometry" />
        </mxCell>
        <mxCell id="WInyjwcGSFLR9HqD_T9U-14" value="" style="group" vertex="1" connectable="0" parent="WInyjwcGSFLR9HqD_T9U-1">
          <mxGeometry x="90" y="270" width="150" height="40" as="geometry" />
        </mxCell>
        <mxCell id="WInyjwcGSFLR9HqD_T9U-15" value="" style="rounded=0;whiteSpace=wrap;html=1;" vertex="1" parent="WInyjwcGSFLR9HqD_T9U-14">
          <mxGeometry x="30" y="-10" width="120" height="40" as="geometry" />
        </mxCell>
        <mxCell id="WInyjwcGSFLR9HqD_T9U-16" value="3" style="text;html=1;align=center;verticalAlign=middle;resizable=0;points=[];autosize=1;strokeColor=none;fillColor=none;" vertex="1" parent="WInyjwcGSFLR9HqD_T9U-14">
          <mxGeometry y="5" width="30" height="30" as="geometry" />
        </mxCell>
        <mxCell id="WInyjwcGSFLR9HqD_T9U-17" value="" style="group" vertex="1" connectable="0" parent="WInyjwcGSFLR9HqD_T9U-1">
          <mxGeometry x="90" y="380" width="150" height="40" as="geometry" />
        </mxCell>
        <mxCell id="WInyjwcGSFLR9HqD_T9U-18" value="" style="rounded=0;whiteSpace=wrap;html=1;" vertex="1" parent="WInyjwcGSFLR9HqD_T9U-17">
          <mxGeometry x="30" width="120" height="40" as="geometry" />
        </mxCell>
        <mxCell id="WInyjwcGSFLR9HqD_T9U-19" value="5" style="text;html=1;align=center;verticalAlign=middle;resizable=0;points=[];autosize=1;strokeColor=none;fillColor=none;" vertex="1" parent="WInyjwcGSFLR9HqD_T9U-17">
          <mxGeometry y="5" width="30" height="30" as="geometry" />
        </mxCell>
        <mxCell id="WInyjwcGSFLR9HqD_T9U-20" value="385" style="text;html=1;align=center;verticalAlign=middle;resizable=0;points=[];autosize=1;strokeColor=none;fillColor=none;" vertex="1" parent="WInyjwcGSFLR9HqD_T9U-17">
          <mxGeometry x="70" y="5" width="40" height="30" as="geometry" />
        </mxCell>
        <mxCell id="WInyjwcGSFLR9HqD_T9U-21" value="" style="group" vertex="1" connectable="0" parent="WInyjwcGSFLR9HqD_T9U-1">
          <mxGeometry x="90" y="440" width="150" height="40" as="geometry" />
        </mxCell>
        <mxCell id="WInyjwcGSFLR9HqD_T9U-22" value="" style="rounded=0;whiteSpace=wrap;html=1;" vertex="1" parent="WInyjwcGSFLR9HqD_T9U-21">
          <mxGeometry x="30" width="120" height="40" as="geometry" />
        </mxCell>
        <mxCell id="WInyjwcGSFLR9HqD_T9U-23" value="6" style="text;html=1;align=center;verticalAlign=middle;resizable=0;points=[];autosize=1;strokeColor=none;fillColor=none;" vertex="1" parent="WInyjwcGSFLR9HqD_T9U-21">
          <mxGeometry y="5" width="30" height="30" as="geometry" />
        </mxCell>
        <mxCell id="WInyjwcGSFLR9HqD_T9U-24" value="" style="group" vertex="1" connectable="0" parent="WInyjwcGSFLR9HqD_T9U-1">
          <mxGeometry x="90" y="500" width="150" height="40" as="geometry" />
        </mxCell>
        <mxCell id="WInyjwcGSFLR9HqD_T9U-25" value="" style="rounded=0;whiteSpace=wrap;html=1;" vertex="1" parent="WInyjwcGSFLR9HqD_T9U-24">
          <mxGeometry x="30" width="120" height="40" as="geometry" />
        </mxCell>
        <mxCell id="WInyjwcGSFLR9HqD_T9U-26" value="7" style="text;html=1;align=center;verticalAlign=middle;resizable=0;points=[];autosize=1;strokeColor=none;fillColor=none;" vertex="1" parent="WInyjwcGSFLR9HqD_T9U-24">
          <mxGeometry y="5" width="30" height="30" as="geometry" />
        </mxCell>
        <mxCell id="WInyjwcGSFLR9HqD_T9U-27" value="" style="group" vertex="1" connectable="0" parent="WInyjwcGSFLR9HqD_T9U-1">
          <mxGeometry x="90" y="620" width="150" height="40" as="geometry" />
        </mxCell>
        <mxCell id="WInyjwcGSFLR9HqD_T9U-28" value="" style="rounded=0;whiteSpace=wrap;html=1;" vertex="1" parent="WInyjwcGSFLR9HqD_T9U-27">
          <mxGeometry x="30" width="120" height="40" as="geometry" />
        </mxCell>
        <mxCell id="WInyjwcGSFLR9HqD_T9U-29" value="9" style="text;html=1;align=center;verticalAlign=middle;resizable=0;points=[];autosize=1;strokeColor=none;fillColor=none;" vertex="1" parent="WInyjwcGSFLR9HqD_T9U-27">
          <mxGeometry y="5" width="30" height="30" as="geometry" />
        </mxCell>
        <mxCell id="WInyjwcGSFLR9HqD_T9U-30" value="" style="group" vertex="1" connectable="0" parent="WInyjwcGSFLR9HqD_T9U-1">
          <mxGeometry x="90" y="570" width="150" height="40" as="geometry" />
        </mxCell>
        <mxCell id="WInyjwcGSFLR9HqD_T9U-31" value="" style="rounded=0;whiteSpace=wrap;html=1;" vertex="1" parent="WInyjwcGSFLR9HqD_T9U-30">
          <mxGeometry x="30" y="-10" width="120" height="40" as="geometry" />
        </mxCell>
        <mxCell id="WInyjwcGSFLR9HqD_T9U-32" value="8" style="text;html=1;align=center;verticalAlign=middle;resizable=0;points=[];autosize=1;strokeColor=none;fillColor=none;" vertex="1" parent="WInyjwcGSFLR9HqD_T9U-30">
          <mxGeometry y="5" width="30" height="30" as="geometry" />
        </mxCell>
        <mxCell id="WInyjwcGSFLR9HqD_T9U-33" value="Tamanha = 10" style="text;html=1;align=center;verticalAlign=middle;resizable=0;points=[];autosize=1;strokeColor=none;fillColor=none;" vertex="1" parent="WInyjwcGSFLR9HqD_T9U-1">
          <mxGeometry x="40" y="10" width="100" height="30" as="geometry" />
        </mxCell>
        <mxCell id="WInyjwcGSFLR9HqD_T9U-34" value="FÃ³rmula hash: %10 (mod)" style="text;html=1;align=center;verticalAlign=middle;resizable=0;points=[];autosize=1;strokeColor=none;fillColor=none;" vertex="1" parent="WInyjwcGSFLR9HqD_T9U-1">
          <mxGeometry x="160" y="10" width="160" height="30" as="geometry" />
        </mxCell>
        <mxCell id="QOhfhEaeznkGYDNWrAfv-2" style="edgeStyle=orthogonalEdgeStyle;rounded=0;orthogonalLoop=1;jettySize=auto;html=1;" edge="1" parent="WInyjwcGSFLR9HqD_T9U-1" source="WInyjwcGSFLR9HqD_T9U-35" target="QOhfhEaeznkGYDNWrAfv-1">
          <mxGeometry relative="1" as="geometry" />
        </mxCell>
        <mxCell id="WInyjwcGSFLR9HqD_T9U-35" value="&lt;span style=&quot;text-wrap: nowrap;&quot;&gt;5&lt;/span&gt;" style="whiteSpace=wrap;html=1;aspect=fixed;" vertex="1" parent="WInyjwcGSFLR9HqD_T9U-1">
          <mxGeometry x="270" y="380" width="40" height="40" as="geometry" />
        </mxCell>
        <mxCell id="WInyjwcGSFLR9HqD_T9U-36" style="edgeStyle=orthogonalEdgeStyle;rounded=0;orthogonalLoop=1;jettySize=auto;html=1;" edge="1" parent="WInyjwcGSFLR9HqD_T9U-1" source="WInyjwcGSFLR9HqD_T9U-18" target="WInyjwcGSFLR9HqD_T9U-35">
          <mxGeometry relative="1" as="geometry" />
        </mxCell>
        <mxCell id="QOhfhEaeznkGYDNWrAfv-1" value="&lt;span style=&quot;text-wrap: nowrap;&quot;&gt;25&lt;/span&gt;" style="whiteSpace=wrap;html=1;aspect=fixed;" vertex="1" parent="WInyjwcGSFLR9HqD_T9U-1">
          <mxGeometry x="350" y="380" width="40" height="40" as="geometry" />
        </mxCell>
        <mxCell id="lKFOX6QsVsKIFV2pVnol-0" value="AdiÃ§Ã£o" style="text;html=1;align=center;verticalAlign=middle;resizable=0;points=[];autosize=1;strokeColor=none;fillColor=none;" vertex="1" parent="WInyjwcGSFLR9HqD_T9U-1">
          <mxGeometry x="260" y="320" width="60" height="30" as="geometry" />
        </mxCell>
      </root>
    </mxGraphModel>
  </diagram>
  <diagram name="5" id="NOAX9SxEDkM-M6arBWK1">
    <mxGraphModel dx="1235" dy="592" grid="1" gridSize="10" guides="1" tooltips="1" connect="1" arrows="1" fold="1" page="1" pageScale="1" pageWidth="850" pageHeight="1100" math="0" shadow="0">
      <root>
        <mxCell id="EJRxUoOClYmeOx3Z1p_E-0" />
        <mxCell id="EJRxUoOClYmeOx3Z1p_E-1" parent="EJRxUoOClYmeOx3Z1p_E-0" />
        <mxCell id="EJRxUoOClYmeOx3Z1p_E-2" value="" style="group" vertex="1" connectable="0" parent="EJRxUoOClYmeOx3Z1p_E-1">
          <mxGeometry x="90" y="80" width="150" height="40" as="geometry" />
        </mxCell>
        <mxCell id="EJRxUoOClYmeOx3Z1p_E-3" value="" style="rounded=0;whiteSpace=wrap;html=1;" vertex="1" parent="EJRxUoOClYmeOx3Z1p_E-2">
          <mxGeometry x="30" width="120" height="40" as="geometry" />
        </mxCell>
        <mxCell id="EJRxUoOClYmeOx3Z1p_E-4" value="0" style="text;html=1;align=center;verticalAlign=middle;resizable=0;points=[];autosize=1;strokeColor=none;fillColor=none;" vertex="1" parent="EJRxUoOClYmeOx3Z1p_E-2">
          <mxGeometry y="5" width="30" height="30" as="geometry" />
        </mxCell>
        <mxCell id="EJRxUoOClYmeOx3Z1p_E-5" value="" style="group" vertex="1" connectable="0" parent="EJRxUoOClYmeOx3Z1p_E-1">
          <mxGeometry x="90" y="140" width="150" height="40" as="geometry" />
        </mxCell>
        <mxCell id="EJRxUoOClYmeOx3Z1p_E-6" value="" style="rounded=0;whiteSpace=wrap;html=1;" vertex="1" parent="EJRxUoOClYmeOx3Z1p_E-5">
          <mxGeometry x="30" width="120" height="40" as="geometry" />
        </mxCell>
        <mxCell id="EJRxUoOClYmeOx3Z1p_E-7" value="1" style="text;html=1;align=center;verticalAlign=middle;resizable=0;points=[];autosize=1;strokeColor=none;fillColor=none;" vertex="1" parent="EJRxUoOClYmeOx3Z1p_E-5">
          <mxGeometry y="5" width="30" height="30" as="geometry" />
        </mxCell>
        <mxCell id="EJRxUoOClYmeOx3Z1p_E-8" value="" style="group" vertex="1" connectable="0" parent="EJRxUoOClYmeOx3Z1p_E-1">
          <mxGeometry x="90" y="200" width="150" height="40" as="geometry" />
        </mxCell>
        <mxCell id="EJRxUoOClYmeOx3Z1p_E-9" value="" style="rounded=0;whiteSpace=wrap;html=1;" vertex="1" parent="EJRxUoOClYmeOx3Z1p_E-8">
          <mxGeometry x="30" width="120" height="40" as="geometry" />
        </mxCell>
        <mxCell id="EJRxUoOClYmeOx3Z1p_E-10" value="2" style="text;html=1;align=center;verticalAlign=middle;resizable=0;points=[];autosize=1;strokeColor=none;fillColor=none;" vertex="1" parent="EJRxUoOClYmeOx3Z1p_E-8">
          <mxGeometry y="5" width="30" height="30" as="geometry" />
        </mxCell>
        <mxCell id="EJRxUoOClYmeOx3Z1p_E-11" value="" style="group" vertex="1" connectable="0" parent="EJRxUoOClYmeOx3Z1p_E-1">
          <mxGeometry x="90" y="320" width="150" height="40" as="geometry" />
        </mxCell>
        <mxCell id="EJRxUoOClYmeOx3Z1p_E-12" value="" style="rounded=0;whiteSpace=wrap;html=1;" vertex="1" parent="EJRxUoOClYmeOx3Z1p_E-11">
          <mxGeometry x="30" width="120" height="40" as="geometry" />
        </mxCell>
        <mxCell id="EJRxUoOClYmeOx3Z1p_E-13" value="4" style="text;html=1;align=center;verticalAlign=middle;resizable=0;points=[];autosize=1;strokeColor=none;fillColor=none;" vertex="1" parent="EJRxUoOClYmeOx3Z1p_E-11">
          <mxGeometry y="5" width="30" height="30" as="geometry" />
        </mxCell>
        <mxCell id="EJRxUoOClYmeOx3Z1p_E-14" value="" style="group" vertex="1" connectable="0" parent="EJRxUoOClYmeOx3Z1p_E-1">
          <mxGeometry x="90" y="270" width="150" height="40" as="geometry" />
        </mxCell>
        <mxCell id="EJRxUoOClYmeOx3Z1p_E-15" value="" style="rounded=0;whiteSpace=wrap;html=1;" vertex="1" parent="EJRxUoOClYmeOx3Z1p_E-14">
          <mxGeometry x="30" y="-10" width="120" height="40" as="geometry" />
        </mxCell>
        <mxCell id="EJRxUoOClYmeOx3Z1p_E-16" value="3" style="text;html=1;align=center;verticalAlign=middle;resizable=0;points=[];autosize=1;strokeColor=none;fillColor=none;" vertex="1" parent="EJRxUoOClYmeOx3Z1p_E-14">
          <mxGeometry y="5" width="30" height="30" as="geometry" />
        </mxCell>
        <mxCell id="EJRxUoOClYmeOx3Z1p_E-17" value="" style="group" vertex="1" connectable="0" parent="EJRxUoOClYmeOx3Z1p_E-1">
          <mxGeometry x="90" y="380" width="150" height="40" as="geometry" />
        </mxCell>
        <mxCell id="EJRxUoOClYmeOx3Z1p_E-18" value="" style="rounded=0;whiteSpace=wrap;html=1;" vertex="1" parent="EJRxUoOClYmeOx3Z1p_E-17">
          <mxGeometry x="30" width="120" height="40" as="geometry" />
        </mxCell>
        <mxCell id="EJRxUoOClYmeOx3Z1p_E-19" value="5" style="text;html=1;align=center;verticalAlign=middle;resizable=0;points=[];autosize=1;strokeColor=none;fillColor=none;" vertex="1" parent="EJRxUoOClYmeOx3Z1p_E-17">
          <mxGeometry y="5" width="30" height="30" as="geometry" />
        </mxCell>
        <mxCell id="EJRxUoOClYmeOx3Z1p_E-20" value="385" style="text;html=1;align=center;verticalAlign=middle;resizable=0;points=[];autosize=1;strokeColor=none;fillColor=none;" vertex="1" parent="EJRxUoOClYmeOx3Z1p_E-17">
          <mxGeometry x="70" y="5" width="40" height="30" as="geometry" />
        </mxCell>
        <mxCell id="EJRxUoOClYmeOx3Z1p_E-21" value="" style="group" vertex="1" connectable="0" parent="EJRxUoOClYmeOx3Z1p_E-1">
          <mxGeometry x="90" y="440" width="150" height="40" as="geometry" />
        </mxCell>
        <mxCell id="EJRxUoOClYmeOx3Z1p_E-22" value="" style="rounded=0;whiteSpace=wrap;html=1;" vertex="1" parent="EJRxUoOClYmeOx3Z1p_E-21">
          <mxGeometry x="30" width="120" height="40" as="geometry" />
        </mxCell>
        <mxCell id="EJRxUoOClYmeOx3Z1p_E-23" value="6" style="text;html=1;align=center;verticalAlign=middle;resizable=0;points=[];autosize=1;strokeColor=none;fillColor=none;" vertex="1" parent="EJRxUoOClYmeOx3Z1p_E-21">
          <mxGeometry y="5" width="30" height="30" as="geometry" />
        </mxCell>
        <mxCell id="EJRxUoOClYmeOx3Z1p_E-24" value="" style="group" vertex="1" connectable="0" parent="EJRxUoOClYmeOx3Z1p_E-1">
          <mxGeometry x="90" y="500" width="150" height="40" as="geometry" />
        </mxCell>
        <mxCell id="EJRxUoOClYmeOx3Z1p_E-25" value="" style="rounded=0;whiteSpace=wrap;html=1;" vertex="1" parent="EJRxUoOClYmeOx3Z1p_E-24">
          <mxGeometry x="30" width="120" height="40" as="geometry" />
        </mxCell>
        <mxCell id="EJRxUoOClYmeOx3Z1p_E-26" value="7" style="text;html=1;align=center;verticalAlign=middle;resizable=0;points=[];autosize=1;strokeColor=none;fillColor=none;" vertex="1" parent="EJRxUoOClYmeOx3Z1p_E-24">
          <mxGeometry y="5" width="30" height="30" as="geometry" />
        </mxCell>
        <mxCell id="EJRxUoOClYmeOx3Z1p_E-27" value="" style="group" vertex="1" connectable="0" parent="EJRxUoOClYmeOx3Z1p_E-1">
          <mxGeometry x="90" y="620" width="150" height="40" as="geometry" />
        </mxCell>
        <mxCell id="EJRxUoOClYmeOx3Z1p_E-28" value="" style="rounded=0;whiteSpace=wrap;html=1;" vertex="1" parent="EJRxUoOClYmeOx3Z1p_E-27">
          <mxGeometry x="30" width="120" height="40" as="geometry" />
        </mxCell>
        <mxCell id="EJRxUoOClYmeOx3Z1p_E-29" value="9" style="text;html=1;align=center;verticalAlign=middle;resizable=0;points=[];autosize=1;strokeColor=none;fillColor=none;" vertex="1" parent="EJRxUoOClYmeOx3Z1p_E-27">
          <mxGeometry y="5" width="30" height="30" as="geometry" />
        </mxCell>
        <mxCell id="EJRxUoOClYmeOx3Z1p_E-30" value="" style="group" vertex="1" connectable="0" parent="EJRxUoOClYmeOx3Z1p_E-1">
          <mxGeometry x="90" y="570" width="150" height="40" as="geometry" />
        </mxCell>
        <mxCell id="EJRxUoOClYmeOx3Z1p_E-31" value="" style="rounded=0;whiteSpace=wrap;html=1;" vertex="1" parent="EJRxUoOClYmeOx3Z1p_E-30">
          <mxGeometry x="30" y="-10" width="120" height="40" as="geometry" />
        </mxCell>
        <mxCell id="EJRxUoOClYmeOx3Z1p_E-32" value="8" style="text;html=1;align=center;verticalAlign=middle;resizable=0;points=[];autosize=1;strokeColor=none;fillColor=none;" vertex="1" parent="EJRxUoOClYmeOx3Z1p_E-30">
          <mxGeometry y="5" width="30" height="30" as="geometry" />
        </mxCell>
        <mxCell id="EJRxUoOClYmeOx3Z1p_E-33" value="Tamanha = 10" style="text;html=1;align=center;verticalAlign=middle;resizable=0;points=[];autosize=1;strokeColor=none;fillColor=none;" vertex="1" parent="EJRxUoOClYmeOx3Z1p_E-1">
          <mxGeometry x="40" y="10" width="100" height="30" as="geometry" />
        </mxCell>
        <mxCell id="EJRxUoOClYmeOx3Z1p_E-34" value="FÃ³rmula hash: %10 (mod)" style="text;html=1;align=center;verticalAlign=middle;resizable=0;points=[];autosize=1;strokeColor=none;fillColor=none;" vertex="1" parent="EJRxUoOClYmeOx3Z1p_E-1">
          <mxGeometry x="160" y="10" width="160" height="30" as="geometry" />
        </mxCell>
        <mxCell id="EJRxUoOClYmeOx3Z1p_E-35" style="edgeStyle=orthogonalEdgeStyle;rounded=0;orthogonalLoop=1;jettySize=auto;html=1;" edge="1" parent="EJRxUoOClYmeOx3Z1p_E-1" source="EJRxUoOClYmeOx3Z1p_E-36" target="EJRxUoOClYmeOx3Z1p_E-38">
          <mxGeometry relative="1" as="geometry" />
        </mxCell>
        <mxCell id="EJRxUoOClYmeOx3Z1p_E-36" value="&lt;span style=&quot;text-wrap: nowrap;&quot;&gt;5&lt;/span&gt;" style="whiteSpace=wrap;html=1;aspect=fixed;" vertex="1" parent="EJRxUoOClYmeOx3Z1p_E-1">
          <mxGeometry x="270" y="380" width="40" height="40" as="geometry" />
        </mxCell>
        <mxCell id="EJRxUoOClYmeOx3Z1p_E-37" style="edgeStyle=orthogonalEdgeStyle;rounded=0;orthogonalLoop=1;jettySize=auto;html=1;" edge="1" parent="EJRxUoOClYmeOx3Z1p_E-1" source="EJRxUoOClYmeOx3Z1p_E-18" target="EJRxUoOClYmeOx3Z1p_E-36">
          <mxGeometry relative="1" as="geometry" />
        </mxCell>
        <mxCell id="EJRxUoOClYmeOx3Z1p_E-38" value="&lt;span style=&quot;text-wrap: nowrap;&quot;&gt;25&lt;/span&gt;" style="whiteSpace=wrap;html=1;aspect=fixed;" vertex="1" parent="EJRxUoOClYmeOx3Z1p_E-1">
          <mxGeometry x="350" y="380" width="40" height="40" as="geometry" />
        </mxCell>
        <mxCell id="EJRxUoOClYmeOx3Z1p_E-39" value="Remover 5" style="text;html=1;align=center;verticalAlign=middle;resizable=0;points=[];autosize=1;strokeColor=none;fillColor=none;" vertex="1" parent="EJRxUoOClYmeOx3Z1p_E-1">
          <mxGeometry x="270" y="320" width="80" height="30" as="geometry" />
        </mxCell>
      </root>
    </mxGraphModel>
  </diagram>
  <diagram name="6" id="uRRYznTkTFp_3F5bd73W">
    <mxGraphModel dx="995" dy="592" grid="1" gridSize="10" guides="1" tooltips="1" connect="1" arrows="1" fold="1" page="1" pageScale="1" pageWidth="850" pageHeight="1100" math="0" shadow="0">
      <root>
        <mxCell id="LMopRAuLf9y5WaE9hEhL-0" />
        <mxCell id="LMopRAuLf9y5WaE9hEhL-1" parent="LMopRAuLf9y5WaE9hEhL-0" />
        <mxCell id="LMopRAuLf9y5WaE9hEhL-2" value="" style="group" vertex="1" connectable="0" parent="LMopRAuLf9y5WaE9hEhL-1">
          <mxGeometry x="90" y="80" width="150" height="40" as="geometry" />
        </mxCell>
        <mxCell id="LMopRAuLf9y5WaE9hEhL-3" value="" style="rounded=0;whiteSpace=wrap;html=1;" vertex="1" parent="LMopRAuLf9y5WaE9hEhL-2">
          <mxGeometry x="30" width="120" height="40" as="geometry" />
        </mxCell>
        <mxCell id="LMopRAuLf9y5WaE9hEhL-4" value="0" style="text;html=1;align=center;verticalAlign=middle;resizable=0;points=[];autosize=1;strokeColor=none;fillColor=none;" vertex="1" parent="LMopRAuLf9y5WaE9hEhL-2">
          <mxGeometry y="5" width="30" height="30" as="geometry" />
        </mxCell>
        <mxCell id="LMopRAuLf9y5WaE9hEhL-5" value="" style="group" vertex="1" connectable="0" parent="LMopRAuLf9y5WaE9hEhL-1">
          <mxGeometry x="90" y="140" width="150" height="40" as="geometry" />
        </mxCell>
        <mxCell id="LMopRAuLf9y5WaE9hEhL-6" value="" style="rounded=0;whiteSpace=wrap;html=1;" vertex="1" parent="LMopRAuLf9y5WaE9hEhL-5">
          <mxGeometry x="30" width="120" height="40" as="geometry" />
        </mxCell>
        <mxCell id="LMopRAuLf9y5WaE9hEhL-7" value="1" style="text;html=1;align=center;verticalAlign=middle;resizable=0;points=[];autosize=1;strokeColor=none;fillColor=none;" vertex="1" parent="LMopRAuLf9y5WaE9hEhL-5">
          <mxGeometry y="5" width="30" height="30" as="geometry" />
        </mxCell>
        <mxCell id="LMopRAuLf9y5WaE9hEhL-8" value="" style="group" vertex="1" connectable="0" parent="LMopRAuLf9y5WaE9hEhL-1">
          <mxGeometry x="90" y="200" width="150" height="40" as="geometry" />
        </mxCell>
        <mxCell id="LMopRAuLf9y5WaE9hEhL-9" value="" style="rounded=0;whiteSpace=wrap;html=1;" vertex="1" parent="LMopRAuLf9y5WaE9hEhL-8">
          <mxGeometry x="30" width="120" height="40" as="geometry" />
        </mxCell>
        <mxCell id="LMopRAuLf9y5WaE9hEhL-10" value="2" style="text;html=1;align=center;verticalAlign=middle;resizable=0;points=[];autosize=1;strokeColor=none;fillColor=none;" vertex="1" parent="LMopRAuLf9y5WaE9hEhL-8">
          <mxGeometry y="5" width="30" height="30" as="geometry" />
        </mxCell>
        <mxCell id="LMopRAuLf9y5WaE9hEhL-11" value="" style="group" vertex="1" connectable="0" parent="LMopRAuLf9y5WaE9hEhL-1">
          <mxGeometry x="90" y="320" width="150" height="40" as="geometry" />
        </mxCell>
        <mxCell id="LMopRAuLf9y5WaE9hEhL-12" value="" style="rounded=0;whiteSpace=wrap;html=1;" vertex="1" parent="LMopRAuLf9y5WaE9hEhL-11">
          <mxGeometry x="30" width="120" height="40" as="geometry" />
        </mxCell>
        <mxCell id="LMopRAuLf9y5WaE9hEhL-13" value="4" style="text;html=1;align=center;verticalAlign=middle;resizable=0;points=[];autosize=1;strokeColor=none;fillColor=none;" vertex="1" parent="LMopRAuLf9y5WaE9hEhL-11">
          <mxGeometry y="5" width="30" height="30" as="geometry" />
        </mxCell>
        <mxCell id="LMopRAuLf9y5WaE9hEhL-14" value="" style="group" vertex="1" connectable="0" parent="LMopRAuLf9y5WaE9hEhL-1">
          <mxGeometry x="90" y="270" width="150" height="40" as="geometry" />
        </mxCell>
        <mxCell id="LMopRAuLf9y5WaE9hEhL-15" value="" style="rounded=0;whiteSpace=wrap;html=1;" vertex="1" parent="LMopRAuLf9y5WaE9hEhL-14">
          <mxGeometry x="30" y="-10" width="120" height="40" as="geometry" />
        </mxCell>
        <mxCell id="LMopRAuLf9y5WaE9hEhL-16" value="3" style="text;html=1;align=center;verticalAlign=middle;resizable=0;points=[];autosize=1;strokeColor=none;fillColor=none;" vertex="1" parent="LMopRAuLf9y5WaE9hEhL-14">
          <mxGeometry y="5" width="30" height="30" as="geometry" />
        </mxCell>
        <mxCell id="LMopRAuLf9y5WaE9hEhL-17" value="" style="group" vertex="1" connectable="0" parent="LMopRAuLf9y5WaE9hEhL-1">
          <mxGeometry x="90" y="380" width="150" height="40" as="geometry" />
        </mxCell>
        <mxCell id="LMopRAuLf9y5WaE9hEhL-18" value="" style="rounded=0;whiteSpace=wrap;html=1;" vertex="1" parent="LMopRAuLf9y5WaE9hEhL-17">
          <mxGeometry x="30" width="120" height="40" as="geometry" />
        </mxCell>
        <mxCell id="LMopRAuLf9y5WaE9hEhL-19" value="5" style="text;html=1;align=center;verticalAlign=middle;resizable=0;points=[];autosize=1;strokeColor=none;fillColor=none;" vertex="1" parent="LMopRAuLf9y5WaE9hEhL-17">
          <mxGeometry y="5" width="30" height="30" as="geometry" />
        </mxCell>
        <mxCell id="LMopRAuLf9y5WaE9hEhL-20" value="385" style="text;html=1;align=center;verticalAlign=middle;resizable=0;points=[];autosize=1;strokeColor=none;fillColor=none;" vertex="1" parent="LMopRAuLf9y5WaE9hEhL-17">
          <mxGeometry x="70" y="5" width="40" height="30" as="geometry" />
        </mxCell>
        <mxCell id="LMopRAuLf9y5WaE9hEhL-21" value="" style="group" vertex="1" connectable="0" parent="LMopRAuLf9y5WaE9hEhL-1">
          <mxGeometry x="90" y="440" width="150" height="40" as="geometry" />
        </mxCell>
        <mxCell id="LMopRAuLf9y5WaE9hEhL-22" value="" style="rounded=0;whiteSpace=wrap;html=1;" vertex="1" parent="LMopRAuLf9y5WaE9hEhL-21">
          <mxGeometry x="30" width="120" height="40" as="geometry" />
        </mxCell>
        <mxCell id="LMopRAuLf9y5WaE9hEhL-23" value="6" style="text;html=1;align=center;verticalAlign=middle;resizable=0;points=[];autosize=1;strokeColor=none;fillColor=none;" vertex="1" parent="LMopRAuLf9y5WaE9hEhL-21">
          <mxGeometry y="5" width="30" height="30" as="geometry" />
        </mxCell>
        <mxCell id="LMopRAuLf9y5WaE9hEhL-24" value="" style="group" vertex="1" connectable="0" parent="LMopRAuLf9y5WaE9hEhL-1">
          <mxGeometry x="90" y="500" width="150" height="40" as="geometry" />
        </mxCell>
        <mxCell id="LMopRAuLf9y5WaE9hEhL-25" value="" style="rounded=0;whiteSpace=wrap;html=1;" vertex="1" parent="LMopRAuLf9y5WaE9hEhL-24">
          <mxGeometry x="30" width="120" height="40" as="geometry" />
        </mxCell>
        <mxCell id="LMopRAuLf9y5WaE9hEhL-26" value="7" style="text;html=1;align=center;verticalAlign=middle;resizable=0;points=[];autosize=1;strokeColor=none;fillColor=none;" vertex="1" parent="LMopRAuLf9y5WaE9hEhL-24">
          <mxGeometry y="5" width="30" height="30" as="geometry" />
        </mxCell>
        <mxCell id="LMopRAuLf9y5WaE9hEhL-27" value="" style="group" vertex="1" connectable="0" parent="LMopRAuLf9y5WaE9hEhL-1">
          <mxGeometry x="90" y="620" width="150" height="40" as="geometry" />
        </mxCell>
        <mxCell id="LMopRAuLf9y5WaE9hEhL-28" value="" style="rounded=0;whiteSpace=wrap;html=1;" vertex="1" parent="LMopRAuLf9y5WaE9hEhL-27">
          <mxGeometry x="30" width="120" height="40" as="geometry" />
        </mxCell>
        <mxCell id="LMopRAuLf9y5WaE9hEhL-29" value="9" style="text;html=1;align=center;verticalAlign=middle;resizable=0;points=[];autosize=1;strokeColor=none;fillColor=none;" vertex="1" parent="LMopRAuLf9y5WaE9hEhL-27">
          <mxGeometry y="5" width="30" height="30" as="geometry" />
        </mxCell>
        <mxCell id="LMopRAuLf9y5WaE9hEhL-30" value="" style="group" vertex="1" connectable="0" parent="LMopRAuLf9y5WaE9hEhL-1">
          <mxGeometry x="90" y="570" width="150" height="40" as="geometry" />
        </mxCell>
        <mxCell id="LMopRAuLf9y5WaE9hEhL-31" value="" style="rounded=0;whiteSpace=wrap;html=1;" vertex="1" parent="LMopRAuLf9y5WaE9hEhL-30">
          <mxGeometry x="30" y="-10" width="120" height="40" as="geometry" />
        </mxCell>
        <mxCell id="LMopRAuLf9y5WaE9hEhL-32" value="8" style="text;html=1;align=center;verticalAlign=middle;resizable=0;points=[];autosize=1;strokeColor=none;fillColor=none;" vertex="1" parent="LMopRAuLf9y5WaE9hEhL-30">
          <mxGeometry y="5" width="30" height="30" as="geometry" />
        </mxCell>
        <mxCell id="LMopRAuLf9y5WaE9hEhL-33" value="Tamanha = 10" style="text;html=1;align=center;verticalAlign=middle;resizable=0;points=[];autosize=1;strokeColor=none;fillColor=none;" vertex="1" parent="LMopRAuLf9y5WaE9hEhL-1">
          <mxGeometry x="40" y="10" width="100" height="30" as="geometry" />
        </mxCell>
        <mxCell id="LMopRAuLf9y5WaE9hEhL-34" value="FÃ³rmula hash: %10 (mod)" style="text;html=1;align=center;verticalAlign=middle;resizable=0;points=[];autosize=1;strokeColor=none;fillColor=none;" vertex="1" parent="LMopRAuLf9y5WaE9hEhL-1">
          <mxGeometry x="160" y="10" width="160" height="30" as="geometry" />
        </mxCell>
        <mxCell id="LMopRAuLf9y5WaE9hEhL-35" style="edgeStyle=orthogonalEdgeStyle;rounded=0;orthogonalLoop=1;jettySize=auto;html=1;" edge="1" parent="LMopRAuLf9y5WaE9hEhL-1" source="LMopRAuLf9y5WaE9hEhL-36" target="LMopRAuLf9y5WaE9hEhL-38">
          <mxGeometry relative="1" as="geometry" />
        </mxCell>
        <mxCell id="LMopRAuLf9y5WaE9hEhL-36" value="&lt;span style=&quot;text-wrap: nowrap;&quot;&gt;5&lt;/span&gt;" style="whiteSpace=wrap;html=1;aspect=fixed;" vertex="1" parent="LMopRAuLf9y5WaE9hEhL-1">
          <mxGeometry x="270" y="380" width="40" height="40" as="geometry" />
        </mxCell>
        <mxCell id="LMopRAuLf9y5WaE9hEhL-37" style="edgeStyle=orthogonalEdgeStyle;rounded=0;orthogonalLoop=1;jettySize=auto;html=1;" edge="1" parent="LMopRAuLf9y5WaE9hEhL-1" source="LMopRAuLf9y5WaE9hEhL-18" target="LMopRAuLf9y5WaE9hEhL-36">
          <mxGeometry relative="1" as="geometry" />
        </mxCell>
        <mxCell id="LMopRAuLf9y5WaE9hEhL-38" value="&lt;span style=&quot;text-wrap: nowrap;&quot;&gt;25&lt;/span&gt;" style="whiteSpace=wrap;html=1;aspect=fixed;" vertex="1" parent="LMopRAuLf9y5WaE9hEhL-1">
          <mxGeometry x="350" y="380" width="40" height="40" as="geometry" />
        </mxCell>
        <mxCell id="ayNUY4PhaoZSASHUCpjg-0" value="Aux" style="text;html=1;align=center;verticalAlign=middle;resizable=0;points=[];autosize=1;strokeColor=none;fillColor=none;" vertex="1" parent="LMopRAuLf9y5WaE9hEhL-1">
          <mxGeometry x="340" y="298" width="40" height="30" as="geometry" />
        </mxCell>
        <mxCell id="ayNUY4PhaoZSASHUCpjg-1" value="" style="endArrow=classic;html=1;rounded=0;entryX=0.5;entryY=0;entryDx=0;entryDy=0;" edge="1" parent="LMopRAuLf9y5WaE9hEhL-1" source="ayNUY4PhaoZSASHUCpjg-0" target="LMopRAuLf9y5WaE9hEhL-36">
          <mxGeometry width="50" height="50" relative="1" as="geometry">
            <mxPoint x="400" y="470" as="sourcePoint" />
            <mxPoint x="450" y="420" as="targetPoint" />
          </mxGeometry>
        </mxCell>
      </root>
    </mxGraphModel>
  </diagram>
  <diagram name="7" id="8eBXM127MeMWkuX-f9dK">
    <mxGraphModel dx="995" dy="592" grid="1" gridSize="10" guides="1" tooltips="1" connect="1" arrows="1" fold="1" page="1" pageScale="1" pageWidth="850" pageHeight="1100" math="0" shadow="0">
      <root>
        <mxCell id="on_nHQras1a5ZE0u_9GM-0" />
        <mxCell id="on_nHQras1a5ZE0u_9GM-1" parent="on_nHQras1a5ZE0u_9GM-0" />
        <mxCell id="on_nHQras1a5ZE0u_9GM-2" value="" style="group" vertex="1" connectable="0" parent="on_nHQras1a5ZE0u_9GM-1">
          <mxGeometry x="90" y="80" width="150" height="40" as="geometry" />
        </mxCell>
        <mxCell id="on_nHQras1a5ZE0u_9GM-3" value="" style="rounded=0;whiteSpace=wrap;html=1;" vertex="1" parent="on_nHQras1a5ZE0u_9GM-2">
          <mxGeometry x="30" width="120" height="40" as="geometry" />
        </mxCell>
        <mxCell id="on_nHQras1a5ZE0u_9GM-4" value="0" style="text;html=1;align=center;verticalAlign=middle;resizable=0;points=[];autosize=1;strokeColor=none;fillColor=none;" vertex="1" parent="on_nHQras1a5ZE0u_9GM-2">
          <mxGeometry y="5" width="30" height="30" as="geometry" />
        </mxCell>
        <mxCell id="on_nHQras1a5ZE0u_9GM-5" value="" style="group" vertex="1" connectable="0" parent="on_nHQras1a5ZE0u_9GM-1">
          <mxGeometry x="90" y="140" width="150" height="40" as="geometry" />
        </mxCell>
        <mxCell id="on_nHQras1a5ZE0u_9GM-6" value="" style="rounded=0;whiteSpace=wrap;html=1;" vertex="1" parent="on_nHQras1a5ZE0u_9GM-5">
          <mxGeometry x="30" width="120" height="40" as="geometry" />
        </mxCell>
        <mxCell id="on_nHQras1a5ZE0u_9GM-7" value="1" style="text;html=1;align=center;verticalAlign=middle;resizable=0;points=[];autosize=1;strokeColor=none;fillColor=none;" vertex="1" parent="on_nHQras1a5ZE0u_9GM-5">
          <mxGeometry y="5" width="30" height="30" as="geometry" />
        </mxCell>
        <mxCell id="on_nHQras1a5ZE0u_9GM-8" value="" style="group" vertex="1" connectable="0" parent="on_nHQras1a5ZE0u_9GM-1">
          <mxGeometry x="90" y="200" width="150" height="40" as="geometry" />
        </mxCell>
        <mxCell id="on_nHQras1a5ZE0u_9GM-9" value="" style="rounded=0;whiteSpace=wrap;html=1;" vertex="1" parent="on_nHQras1a5ZE0u_9GM-8">
          <mxGeometry x="30" width="120" height="40" as="geometry" />
        </mxCell>
        <mxCell id="on_nHQras1a5ZE0u_9GM-10" value="2" style="text;html=1;align=center;verticalAlign=middle;resizable=0;points=[];autosize=1;strokeColor=none;fillColor=none;" vertex="1" parent="on_nHQras1a5ZE0u_9GM-8">
          <mxGeometry y="5" width="30" height="30" as="geometry" />
        </mxCell>
        <mxCell id="on_nHQras1a5ZE0u_9GM-11" value="" style="group" vertex="1" connectable="0" parent="on_nHQras1a5ZE0u_9GM-1">
          <mxGeometry x="90" y="320" width="150" height="40" as="geometry" />
        </mxCell>
        <mxCell id="on_nHQras1a5ZE0u_9GM-12" value="" style="rounded=0;whiteSpace=wrap;html=1;" vertex="1" parent="on_nHQras1a5ZE0u_9GM-11">
          <mxGeometry x="30" width="120" height="40" as="geometry" />
        </mxCell>
        <mxCell id="on_nHQras1a5ZE0u_9GM-13" value="4" style="text;html=1;align=center;verticalAlign=middle;resizable=0;points=[];autosize=1;strokeColor=none;fillColor=none;" vertex="1" parent="on_nHQras1a5ZE0u_9GM-11">
          <mxGeometry y="5" width="30" height="30" as="geometry" />
        </mxCell>
        <mxCell id="on_nHQras1a5ZE0u_9GM-14" value="" style="group" vertex="1" connectable="0" parent="on_nHQras1a5ZE0u_9GM-1">
          <mxGeometry x="90" y="270" width="150" height="40" as="geometry" />
        </mxCell>
        <mxCell id="on_nHQras1a5ZE0u_9GM-15" value="" style="rounded=0;whiteSpace=wrap;html=1;" vertex="1" parent="on_nHQras1a5ZE0u_9GM-14">
          <mxGeometry x="30" y="-10" width="120" height="40" as="geometry" />
        </mxCell>
        <mxCell id="on_nHQras1a5ZE0u_9GM-16" value="3" style="text;html=1;align=center;verticalAlign=middle;resizable=0;points=[];autosize=1;strokeColor=none;fillColor=none;" vertex="1" parent="on_nHQras1a5ZE0u_9GM-14">
          <mxGeometry y="5" width="30" height="30" as="geometry" />
        </mxCell>
        <mxCell id="on_nHQras1a5ZE0u_9GM-17" value="" style="group" vertex="1" connectable="0" parent="on_nHQras1a5ZE0u_9GM-1">
          <mxGeometry x="90" y="380" width="150" height="40" as="geometry" />
        </mxCell>
        <mxCell id="on_nHQras1a5ZE0u_9GM-18" value="" style="rounded=0;whiteSpace=wrap;html=1;" vertex="1" parent="on_nHQras1a5ZE0u_9GM-17">
          <mxGeometry x="30" width="120" height="40" as="geometry" />
        </mxCell>
        <mxCell id="on_nHQras1a5ZE0u_9GM-19" value="5" style="text;html=1;align=center;verticalAlign=middle;resizable=0;points=[];autosize=1;strokeColor=none;fillColor=none;" vertex="1" parent="on_nHQras1a5ZE0u_9GM-17">
          <mxGeometry y="5" width="30" height="30" as="geometry" />
        </mxCell>
        <mxCell id="on_nHQras1a5ZE0u_9GM-20" value="385" style="text;html=1;align=center;verticalAlign=middle;resizable=0;points=[];autosize=1;strokeColor=none;fillColor=none;" vertex="1" parent="on_nHQras1a5ZE0u_9GM-17">
          <mxGeometry x="70" y="5" width="40" height="30" as="geometry" />
        </mxCell>
        <mxCell id="on_nHQras1a5ZE0u_9GM-21" value="" style="group" vertex="1" connectable="0" parent="on_nHQras1a5ZE0u_9GM-1">
          <mxGeometry x="90" y="440" width="150" height="40" as="geometry" />
        </mxCell>
        <mxCell id="on_nHQras1a5ZE0u_9GM-22" value="" style="rounded=0;whiteSpace=wrap;html=1;" vertex="1" parent="on_nHQras1a5ZE0u_9GM-21">
          <mxGeometry x="30" width="120" height="40" as="geometry" />
        </mxCell>
        <mxCell id="on_nHQras1a5ZE0u_9GM-23" value="6" style="text;html=1;align=center;verticalAlign=middle;resizable=0;points=[];autosize=1;strokeColor=none;fillColor=none;" vertex="1" parent="on_nHQras1a5ZE0u_9GM-21">
          <mxGeometry y="5" width="30" height="30" as="geometry" />
        </mxCell>
        <mxCell id="on_nHQras1a5ZE0u_9GM-24" value="" style="group" vertex="1" connectable="0" parent="on_nHQras1a5ZE0u_9GM-1">
          <mxGeometry x="90" y="500" width="150" height="40" as="geometry" />
        </mxCell>
        <mxCell id="on_nHQras1a5ZE0u_9GM-25" value="" style="rounded=0;whiteSpace=wrap;html=1;" vertex="1" parent="on_nHQras1a5ZE0u_9GM-24">
          <mxGeometry x="30" width="120" height="40" as="geometry" />
        </mxCell>
        <mxCell id="on_nHQras1a5ZE0u_9GM-26" value="7" style="text;html=1;align=center;verticalAlign=middle;resizable=0;points=[];autosize=1;strokeColor=none;fillColor=none;" vertex="1" parent="on_nHQras1a5ZE0u_9GM-24">
          <mxGeometry y="5" width="30" height="30" as="geometry" />
        </mxCell>
        <mxCell id="on_nHQras1a5ZE0u_9GM-27" value="" style="group" vertex="1" connectable="0" parent="on_nHQras1a5ZE0u_9GM-1">
          <mxGeometry x="90" y="620" width="150" height="40" as="geometry" />
        </mxCell>
        <mxCell id="on_nHQras1a5ZE0u_9GM-28" value="" style="rounded=0;whiteSpace=wrap;html=1;" vertex="1" parent="on_nHQras1a5ZE0u_9GM-27">
          <mxGeometry x="30" width="120" height="40" as="geometry" />
        </mxCell>
        <mxCell id="on_nHQras1a5ZE0u_9GM-29" value="9" style="text;html=1;align=center;verticalAlign=middle;resizable=0;points=[];autosize=1;strokeColor=none;fillColor=none;" vertex="1" parent="on_nHQras1a5ZE0u_9GM-27">
          <mxGeometry y="5" width="30" height="30" as="geometry" />
        </mxCell>
        <mxCell id="on_nHQras1a5ZE0u_9GM-30" value="" style="group" vertex="1" connectable="0" parent="on_nHQras1a5ZE0u_9GM-1">
          <mxGeometry x="90" y="570" width="150" height="40" as="geometry" />
        </mxCell>
        <mxCell id="on_nHQras1a5ZE0u_9GM-31" value="" style="rounded=0;whiteSpace=wrap;html=1;" vertex="1" parent="on_nHQras1a5ZE0u_9GM-30">
          <mxGeometry x="30" y="-10" width="120" height="40" as="geometry" />
        </mxCell>
        <mxCell id="on_nHQras1a5ZE0u_9GM-32" value="8" style="text;html=1;align=center;verticalAlign=middle;resizable=0;points=[];autosize=1;strokeColor=none;fillColor=none;" vertex="1" parent="on_nHQras1a5ZE0u_9GM-30">
          <mxGeometry y="5" width="30" height="30" as="geometry" />
        </mxCell>
        <mxCell id="on_nHQras1a5ZE0u_9GM-33" value="Tamanha = 10" style="text;html=1;align=center;verticalAlign=middle;resizable=0;points=[];autosize=1;strokeColor=none;fillColor=none;" vertex="1" parent="on_nHQras1a5ZE0u_9GM-1">
          <mxGeometry x="40" y="10" width="100" height="30" as="geometry" />
        </mxCell>
        <mxCell id="on_nHQras1a5ZE0u_9GM-34" value="FÃ³rmula hash: %10 (mod)" style="text;html=1;align=center;verticalAlign=middle;resizable=0;points=[];autosize=1;strokeColor=none;fillColor=none;" vertex="1" parent="on_nHQras1a5ZE0u_9GM-1">
          <mxGeometry x="160" y="10" width="160" height="30" as="geometry" />
        </mxCell>
        <mxCell id="on_nHQras1a5ZE0u_9GM-35" style="edgeStyle=orthogonalEdgeStyle;rounded=0;orthogonalLoop=1;jettySize=auto;html=1;" edge="1" parent="on_nHQras1a5ZE0u_9GM-1" source="on_nHQras1a5ZE0u_9GM-36" target="on_nHQras1a5ZE0u_9GM-38">
          <mxGeometry relative="1" as="geometry" />
        </mxCell>
        <mxCell id="on_nHQras1a5ZE0u_9GM-36" value="&lt;span style=&quot;text-wrap: nowrap;&quot;&gt;5&lt;/span&gt;" style="whiteSpace=wrap;html=1;aspect=fixed;" vertex="1" parent="on_nHQras1a5ZE0u_9GM-1">
          <mxGeometry x="280" y="328" width="40" height="40" as="geometry" />
        </mxCell>
        <mxCell id="on_nHQras1a5ZE0u_9GM-37" style="edgeStyle=orthogonalEdgeStyle;rounded=0;orthogonalLoop=1;jettySize=auto;html=1;entryX=0;entryY=0.5;entryDx=0;entryDy=0;" edge="1" parent="on_nHQras1a5ZE0u_9GM-1" source="on_nHQras1a5ZE0u_9GM-18" target="on_nHQras1a5ZE0u_9GM-38">
          <mxGeometry relative="1" as="geometry" />
        </mxCell>
        <mxCell id="on_nHQras1a5ZE0u_9GM-38" value="&lt;span style=&quot;text-wrap: nowrap;&quot;&gt;25&lt;/span&gt;" style="whiteSpace=wrap;html=1;aspect=fixed;" vertex="1" parent="on_nHQras1a5ZE0u_9GM-1">
          <mxGeometry x="350" y="380" width="40" height="40" as="geometry" />
        </mxCell>
        <mxCell id="on_nHQras1a5ZE0u_9GM-39" value="Aux" style="text;html=1;align=center;verticalAlign=middle;resizable=0;points=[];autosize=1;strokeColor=none;fillColor=none;" vertex="1" parent="on_nHQras1a5ZE0u_9GM-1">
          <mxGeometry x="340" y="280" width="40" height="30" as="geometry" />
        </mxCell>
        <mxCell id="on_nHQras1a5ZE0u_9GM-40" value="" style="endArrow=classic;html=1;rounded=0;entryX=0.5;entryY=0;entryDx=0;entryDy=0;" edge="1" parent="on_nHQras1a5ZE0u_9GM-1" source="on_nHQras1a5ZE0u_9GM-39" target="on_nHQras1a5ZE0u_9GM-36">
          <mxGeometry width="50" height="50" relative="1" as="geometry">
            <mxPoint x="400" y="470" as="sourcePoint" />
            <mxPoint x="450" y="420" as="targetPoint" />
          </mxGeometry>
        </mxCell>
      </root>
    </mxGraphModel>
  </diagram>
  <diagram name="8" id="iDqGd77AioBccg4v6TBl">
    <mxGraphModel dx="995" dy="592" grid="1" gridSize="10" guides="1" tooltips="1" connect="1" arrows="1" fold="1" page="1" pageScale="1" pageWidth="850" pageHeight="1100" math="0" shadow="0">
      <root>
        <mxCell id="66wMyOfl3N2DgHFgX2C4-0" />
        <mxCell id="66wMyOfl3N2DgHFgX2C4-1" parent="66wMyOfl3N2DgHFgX2C4-0" />
        <mxCell id="66wMyOfl3N2DgHFgX2C4-2" value="" style="group" vertex="1" connectable="0" parent="66wMyOfl3N2DgHFgX2C4-1">
          <mxGeometry x="90" y="80" width="150" height="40" as="geometry" />
        </mxCell>
        <mxCell id="66wMyOfl3N2DgHFgX2C4-3" value="" style="rounded=0;whiteSpace=wrap;html=1;" vertex="1" parent="66wMyOfl3N2DgHFgX2C4-2">
          <mxGeometry x="30" width="120" height="40" as="geometry" />
        </mxCell>
        <mxCell id="66wMyOfl3N2DgHFgX2C4-4" value="0" style="text;html=1;align=center;verticalAlign=middle;resizable=0;points=[];autosize=1;strokeColor=none;fillColor=none;" vertex="1" parent="66wMyOfl3N2DgHFgX2C4-2">
          <mxGeometry y="5" width="30" height="30" as="geometry" />
        </mxCell>
        <mxCell id="66wMyOfl3N2DgHFgX2C4-5" value="" style="group" vertex="1" connectable="0" parent="66wMyOfl3N2DgHFgX2C4-1">
          <mxGeometry x="90" y="140" width="150" height="40" as="geometry" />
        </mxCell>
        <mxCell id="66wMyOfl3N2DgHFgX2C4-6" value="" style="rounded=0;whiteSpace=wrap;html=1;" vertex="1" parent="66wMyOfl3N2DgHFgX2C4-5">
          <mxGeometry x="30" width="120" height="40" as="geometry" />
        </mxCell>
        <mxCell id="66wMyOfl3N2DgHFgX2C4-7" value="1" style="text;html=1;align=center;verticalAlign=middle;resizable=0;points=[];autosize=1;strokeColor=none;fillColor=none;" vertex="1" parent="66wMyOfl3N2DgHFgX2C4-5">
          <mxGeometry y="5" width="30" height="30" as="geometry" />
        </mxCell>
        <mxCell id="66wMyOfl3N2DgHFgX2C4-8" value="" style="group" vertex="1" connectable="0" parent="66wMyOfl3N2DgHFgX2C4-1">
          <mxGeometry x="90" y="200" width="150" height="40" as="geometry" />
        </mxCell>
        <mxCell id="66wMyOfl3N2DgHFgX2C4-9" value="" style="rounded=0;whiteSpace=wrap;html=1;" vertex="1" parent="66wMyOfl3N2DgHFgX2C4-8">
          <mxGeometry x="30" width="120" height="40" as="geometry" />
        </mxCell>
        <mxCell id="66wMyOfl3N2DgHFgX2C4-10" value="2" style="text;html=1;align=center;verticalAlign=middle;resizable=0;points=[];autosize=1;strokeColor=none;fillColor=none;" vertex="1" parent="66wMyOfl3N2DgHFgX2C4-8">
          <mxGeometry y="5" width="30" height="30" as="geometry" />
        </mxCell>
        <mxCell id="66wMyOfl3N2DgHFgX2C4-11" value="" style="group" vertex="1" connectable="0" parent="66wMyOfl3N2DgHFgX2C4-1">
          <mxGeometry x="90" y="320" width="150" height="40" as="geometry" />
        </mxCell>
        <mxCell id="66wMyOfl3N2DgHFgX2C4-12" value="" style="rounded=0;whiteSpace=wrap;html=1;" vertex="1" parent="66wMyOfl3N2DgHFgX2C4-11">
          <mxGeometry x="30" width="120" height="40" as="geometry" />
        </mxCell>
        <mxCell id="66wMyOfl3N2DgHFgX2C4-13" value="4" style="text;html=1;align=center;verticalAlign=middle;resizable=0;points=[];autosize=1;strokeColor=none;fillColor=none;" vertex="1" parent="66wMyOfl3N2DgHFgX2C4-11">
          <mxGeometry y="5" width="30" height="30" as="geometry" />
        </mxCell>
        <mxCell id="66wMyOfl3N2DgHFgX2C4-14" value="" style="group" vertex="1" connectable="0" parent="66wMyOfl3N2DgHFgX2C4-1">
          <mxGeometry x="90" y="270" width="150" height="40" as="geometry" />
        </mxCell>
        <mxCell id="66wMyOfl3N2DgHFgX2C4-15" value="" style="rounded=0;whiteSpace=wrap;html=1;" vertex="1" parent="66wMyOfl3N2DgHFgX2C4-14">
          <mxGeometry x="30" y="-10" width="120" height="40" as="geometry" />
        </mxCell>
        <mxCell id="66wMyOfl3N2DgHFgX2C4-16" value="3" style="text;html=1;align=center;verticalAlign=middle;resizable=0;points=[];autosize=1;strokeColor=none;fillColor=none;" vertex="1" parent="66wMyOfl3N2DgHFgX2C4-14">
          <mxGeometry y="5" width="30" height="30" as="geometry" />
        </mxCell>
        <mxCell id="66wMyOfl3N2DgHFgX2C4-17" value="" style="group" vertex="1" connectable="0" parent="66wMyOfl3N2DgHFgX2C4-1">
          <mxGeometry x="90" y="380" width="150" height="40" as="geometry" />
        </mxCell>
        <mxCell id="66wMyOfl3N2DgHFgX2C4-18" value="" style="rounded=0;whiteSpace=wrap;html=1;" vertex="1" parent="66wMyOfl3N2DgHFgX2C4-17">
          <mxGeometry x="30" width="120" height="40" as="geometry" />
        </mxCell>
        <mxCell id="66wMyOfl3N2DgHFgX2C4-19" value="5" style="text;html=1;align=center;verticalAlign=middle;resizable=0;points=[];autosize=1;strokeColor=none;fillColor=none;" vertex="1" parent="66wMyOfl3N2DgHFgX2C4-17">
          <mxGeometry y="5" width="30" height="30" as="geometry" />
        </mxCell>
        <mxCell id="66wMyOfl3N2DgHFgX2C4-20" value="385" style="text;html=1;align=center;verticalAlign=middle;resizable=0;points=[];autosize=1;strokeColor=none;fillColor=none;" vertex="1" parent="66wMyOfl3N2DgHFgX2C4-17">
          <mxGeometry x="70" y="5" width="40" height="30" as="geometry" />
        </mxCell>
        <mxCell id="66wMyOfl3N2DgHFgX2C4-21" value="" style="group" vertex="1" connectable="0" parent="66wMyOfl3N2DgHFgX2C4-1">
          <mxGeometry x="90" y="440" width="150" height="40" as="geometry" />
        </mxCell>
        <mxCell id="66wMyOfl3N2DgHFgX2C4-22" value="" style="rounded=0;whiteSpace=wrap;html=1;" vertex="1" parent="66wMyOfl3N2DgHFgX2C4-21">
          <mxGeometry x="30" width="120" height="40" as="geometry" />
        </mxCell>
        <mxCell id="66wMyOfl3N2DgHFgX2C4-23" value="6" style="text;html=1;align=center;verticalAlign=middle;resizable=0;points=[];autosize=1;strokeColor=none;fillColor=none;" vertex="1" parent="66wMyOfl3N2DgHFgX2C4-21">
          <mxGeometry y="5" width="30" height="30" as="geometry" />
        </mxCell>
        <mxCell id="66wMyOfl3N2DgHFgX2C4-24" value="" style="group" vertex="1" connectable="0" parent="66wMyOfl3N2DgHFgX2C4-1">
          <mxGeometry x="90" y="500" width="150" height="40" as="geometry" />
        </mxCell>
        <mxCell id="66wMyOfl3N2DgHFgX2C4-25" value="" style="rounded=0;whiteSpace=wrap;html=1;" vertex="1" parent="66wMyOfl3N2DgHFgX2C4-24">
          <mxGeometry x="30" width="120" height="40" as="geometry" />
        </mxCell>
        <mxCell id="66wMyOfl3N2DgHFgX2C4-26" value="7" style="text;html=1;align=center;verticalAlign=middle;resizable=0;points=[];autosize=1;strokeColor=none;fillColor=none;" vertex="1" parent="66wMyOfl3N2DgHFgX2C4-24">
          <mxGeometry y="5" width="30" height="30" as="geometry" />
        </mxCell>
        <mxCell id="66wMyOfl3N2DgHFgX2C4-27" value="" style="group" vertex="1" connectable="0" parent="66wMyOfl3N2DgHFgX2C4-1">
          <mxGeometry x="90" y="620" width="150" height="40" as="geometry" />
        </mxCell>
        <mxCell id="66wMyOfl3N2DgHFgX2C4-28" value="" style="rounded=0;whiteSpace=wrap;html=1;" vertex="1" parent="66wMyOfl3N2DgHFgX2C4-27">
          <mxGeometry x="30" width="120" height="40" as="geometry" />
        </mxCell>
        <mxCell id="66wMyOfl3N2DgHFgX2C4-29" value="9" style="text;html=1;align=center;verticalAlign=middle;resizable=0;points=[];autosize=1;strokeColor=none;fillColor=none;" vertex="1" parent="66wMyOfl3N2DgHFgX2C4-27">
          <mxGeometry y="5" width="30" height="30" as="geometry" />
        </mxCell>
        <mxCell id="66wMyOfl3N2DgHFgX2C4-30" value="" style="group" vertex="1" connectable="0" parent="66wMyOfl3N2DgHFgX2C4-1">
          <mxGeometry x="90" y="570" width="150" height="40" as="geometry" />
        </mxCell>
        <mxCell id="66wMyOfl3N2DgHFgX2C4-31" value="" style="rounded=0;whiteSpace=wrap;html=1;" vertex="1" parent="66wMyOfl3N2DgHFgX2C4-30">
          <mxGeometry x="30" y="-10" width="120" height="40" as="geometry" />
        </mxCell>
        <mxCell id="66wMyOfl3N2DgHFgX2C4-32" value="8" style="text;html=1;align=center;verticalAlign=middle;resizable=0;points=[];autosize=1;strokeColor=none;fillColor=none;" vertex="1" parent="66wMyOfl3N2DgHFgX2C4-30">
          <mxGeometry y="5" width="30" height="30" as="geometry" />
        </mxCell>
        <mxCell id="66wMyOfl3N2DgHFgX2C4-33" value="Tamanha = 10" style="text;html=1;align=center;verticalAlign=middle;resizable=0;points=[];autosize=1;strokeColor=none;fillColor=none;" vertex="1" parent="66wMyOfl3N2DgHFgX2C4-1">
          <mxGeometry x="40" y="10" width="100" height="30" as="geometry" />
        </mxCell>
        <mxCell id="66wMyOfl3N2DgHFgX2C4-34" value="FÃ³rmula hash: %10 (mod)" style="text;html=1;align=center;verticalAlign=middle;resizable=0;points=[];autosize=1;strokeColor=none;fillColor=none;" vertex="1" parent="66wMyOfl3N2DgHFgX2C4-1">
          <mxGeometry x="160" y="10" width="160" height="30" as="geometry" />
        </mxCell>
        <mxCell id="66wMyOfl3N2DgHFgX2C4-35" style="edgeStyle=orthogonalEdgeStyle;rounded=0;orthogonalLoop=1;jettySize=auto;html=1;" edge="1" parent="66wMyOfl3N2DgHFgX2C4-1" source="66wMyOfl3N2DgHFgX2C4-36" target="66wMyOfl3N2DgHFgX2C4-38">
          <mxGeometry relative="1" as="geometry" />
        </mxCell>
        <mxCell id="66wMyOfl3N2DgHFgX2C4-36" value="&lt;span style=&quot;text-wrap: nowrap;&quot;&gt;5&lt;/span&gt;" style="whiteSpace=wrap;html=1;aspect=fixed;" vertex="1" parent="66wMyOfl3N2DgHFgX2C4-1">
          <mxGeometry x="280" y="328" width="40" height="40" as="geometry" />
        </mxCell>
        <mxCell id="66wMyOfl3N2DgHFgX2C4-37" style="edgeStyle=orthogonalEdgeStyle;rounded=0;orthogonalLoop=1;jettySize=auto;html=1;entryX=0;entryY=0.5;entryDx=0;entryDy=0;" edge="1" parent="66wMyOfl3N2DgHFgX2C4-1" source="66wMyOfl3N2DgHFgX2C4-18" target="66wMyOfl3N2DgHFgX2C4-38">
          <mxGeometry relative="1" as="geometry" />
        </mxCell>
        <mxCell id="66wMyOfl3N2DgHFgX2C4-38" value="&lt;span style=&quot;text-wrap: nowrap;&quot;&gt;25&lt;/span&gt;" style="whiteSpace=wrap;html=1;aspect=fixed;" vertex="1" parent="66wMyOfl3N2DgHFgX2C4-1">
          <mxGeometry x="350" y="380" width="40" height="40" as="geometry" />
        </mxCell>
        <mxCell id="66wMyOfl3N2DgHFgX2C4-39" value="Aux" style="text;html=1;align=center;verticalAlign=middle;resizable=0;points=[];autosize=1;strokeColor=none;fillColor=none;" vertex="1" parent="66wMyOfl3N2DgHFgX2C4-1">
          <mxGeometry x="340" y="280" width="40" height="30" as="geometry" />
        </mxCell>
        <mxCell id="66wMyOfl3N2DgHFgX2C4-40" value="" style="endArrow=classic;html=1;rounded=0;entryX=0.5;entryY=0;entryDx=0;entryDy=0;" edge="1" parent="66wMyOfl3N2DgHFgX2C4-1" source="66wMyOfl3N2DgHFgX2C4-39" target="66wMyOfl3N2DgHFgX2C4-36">
          <mxGeometry width="50" height="50" relative="1" as="geometry">
            <mxPoint x="400" y="470" as="sourcePoint" />
            <mxPoint x="450" y="420" as="targetPoint" />
          </mxGeometry>
        </mxCell>
        <mxCell id="SLfBnX9Hvr0-_wuj_h6K-0" value="" style="shape=cross;whiteSpace=wrap;html=1;fillColor=#f8cecc;strokeColor=#b85450;rotation=45;" vertex="1" parent="66wMyOfl3N2DgHFgX2C4-1">
          <mxGeometry x="270" y="318" width="60" height="60" as="geometry" />
        </mxCell>
      </root>
    </mxGraphModel>
  </diagram>
  <diagram name="9" id="HIof_vbn2CtFfNJLieZ4">
    <mxGraphModel dx="995" dy="592" grid="1" gridSize="10" guides="1" tooltips="1" connect="1" arrows="1" fold="1" page="1" pageScale="1" pageWidth="850" pageHeight="1100" math="0" shadow="0">
      <root>
        <mxCell id="FFHyYveGUD2gtKVKdPKo-0" />
        <mxCell id="FFHyYveGUD2gtKVKdPKo-1" parent="FFHyYveGUD2gtKVKdPKo-0" />
        <mxCell id="FFHyYveGUD2gtKVKdPKo-2" value="" style="group" vertex="1" connectable="0" parent="FFHyYveGUD2gtKVKdPKo-1">
          <mxGeometry x="90" y="80" width="150" height="40" as="geometry" />
        </mxCell>
        <mxCell id="FFHyYveGUD2gtKVKdPKo-3" value="" style="rounded=0;whiteSpace=wrap;html=1;" vertex="1" parent="FFHyYveGUD2gtKVKdPKo-2">
          <mxGeometry x="30" width="120" height="40" as="geometry" />
        </mxCell>
        <mxCell id="FFHyYveGUD2gtKVKdPKo-4" value="0" style="text;html=1;align=center;verticalAlign=middle;resizable=0;points=[];autosize=1;strokeColor=none;fillColor=none;" vertex="1" parent="FFHyYveGUD2gtKVKdPKo-2">
          <mxGeometry y="5" width="30" height="30" as="geometry" />
        </mxCell>
        <mxCell id="FFHyYveGUD2gtKVKdPKo-5" value="" style="group" vertex="1" connectable="0" parent="FFHyYveGUD2gtKVKdPKo-1">
          <mxGeometry x="90" y="140" width="150" height="40" as="geometry" />
        </mxCell>
        <mxCell id="FFHyYveGUD2gtKVKdPKo-6" value="" style="rounded=0;whiteSpace=wrap;html=1;" vertex="1" parent="FFHyYveGUD2gtKVKdPKo-5">
          <mxGeometry x="30" width="120" height="40" as="geometry" />
        </mxCell>
        <mxCell id="FFHyYveGUD2gtKVKdPKo-7" value="1" style="text;html=1;align=center;verticalAlign=middle;resizable=0;points=[];autosize=1;strokeColor=none;fillColor=none;" vertex="1" parent="FFHyYveGUD2gtKVKdPKo-5">
          <mxGeometry y="5" width="30" height="30" as="geometry" />
        </mxCell>
        <mxCell id="FFHyYveGUD2gtKVKdPKo-8" value="" style="group" vertex="1" connectable="0" parent="FFHyYveGUD2gtKVKdPKo-1">
          <mxGeometry x="90" y="200" width="150" height="40" as="geometry" />
        </mxCell>
        <mxCell id="FFHyYveGUD2gtKVKdPKo-9" value="" style="rounded=0;whiteSpace=wrap;html=1;" vertex="1" parent="FFHyYveGUD2gtKVKdPKo-8">
          <mxGeometry x="30" width="120" height="40" as="geometry" />
        </mxCell>
        <mxCell id="FFHyYveGUD2gtKVKdPKo-10" value="2" style="text;html=1;align=center;verticalAlign=middle;resizable=0;points=[];autosize=1;strokeColor=none;fillColor=none;" vertex="1" parent="FFHyYveGUD2gtKVKdPKo-8">
          <mxGeometry y="5" width="30" height="30" as="geometry" />
        </mxCell>
        <mxCell id="FFHyYveGUD2gtKVKdPKo-11" value="" style="group" vertex="1" connectable="0" parent="FFHyYveGUD2gtKVKdPKo-1">
          <mxGeometry x="90" y="320" width="150" height="40" as="geometry" />
        </mxCell>
        <mxCell id="FFHyYveGUD2gtKVKdPKo-12" value="" style="rounded=0;whiteSpace=wrap;html=1;" vertex="1" parent="FFHyYveGUD2gtKVKdPKo-11">
          <mxGeometry x="30" width="120" height="40" as="geometry" />
        </mxCell>
        <mxCell id="FFHyYveGUD2gtKVKdPKo-13" value="4" style="text;html=1;align=center;verticalAlign=middle;resizable=0;points=[];autosize=1;strokeColor=none;fillColor=none;" vertex="1" parent="FFHyYveGUD2gtKVKdPKo-11">
          <mxGeometry y="5" width="30" height="30" as="geometry" />
        </mxCell>
        <mxCell id="FFHyYveGUD2gtKVKdPKo-14" value="" style="group" vertex="1" connectable="0" parent="FFHyYveGUD2gtKVKdPKo-1">
          <mxGeometry x="90" y="270" width="150" height="40" as="geometry" />
        </mxCell>
        <mxCell id="FFHyYveGUD2gtKVKdPKo-15" value="" style="rounded=0;whiteSpace=wrap;html=1;" vertex="1" parent="FFHyYveGUD2gtKVKdPKo-14">
          <mxGeometry x="30" y="-10" width="120" height="40" as="geometry" />
        </mxCell>
        <mxCell id="FFHyYveGUD2gtKVKdPKo-16" value="3" style="text;html=1;align=center;verticalAlign=middle;resizable=0;points=[];autosize=1;strokeColor=none;fillColor=none;" vertex="1" parent="FFHyYveGUD2gtKVKdPKo-14">
          <mxGeometry y="5" width="30" height="30" as="geometry" />
        </mxCell>
        <mxCell id="FFHyYveGUD2gtKVKdPKo-17" value="" style="group" vertex="1" connectable="0" parent="FFHyYveGUD2gtKVKdPKo-1">
          <mxGeometry x="90" y="380" width="150" height="40" as="geometry" />
        </mxCell>
        <mxCell id="FFHyYveGUD2gtKVKdPKo-18" value="" style="rounded=0;whiteSpace=wrap;html=1;" vertex="1" parent="FFHyYveGUD2gtKVKdPKo-17">
          <mxGeometry x="30" width="120" height="40" as="geometry" />
        </mxCell>
        <mxCell id="FFHyYveGUD2gtKVKdPKo-19" value="5" style="text;html=1;align=center;verticalAlign=middle;resizable=0;points=[];autosize=1;strokeColor=none;fillColor=none;" vertex="1" parent="FFHyYveGUD2gtKVKdPKo-17">
          <mxGeometry y="5" width="30" height="30" as="geometry" />
        </mxCell>
        <mxCell id="FFHyYveGUD2gtKVKdPKo-20" value="385" style="text;html=1;align=center;verticalAlign=middle;resizable=0;points=[];autosize=1;strokeColor=none;fillColor=none;" vertex="1" parent="FFHyYveGUD2gtKVKdPKo-17">
          <mxGeometry x="70" y="5" width="40" height="30" as="geometry" />
        </mxCell>
        <mxCell id="FFHyYveGUD2gtKVKdPKo-21" value="" style="group" vertex="1" connectable="0" parent="FFHyYveGUD2gtKVKdPKo-1">
          <mxGeometry x="90" y="440" width="150" height="40" as="geometry" />
        </mxCell>
        <mxCell id="FFHyYveGUD2gtKVKdPKo-22" value="" style="rounded=0;whiteSpace=wrap;html=1;" vertex="1" parent="FFHyYveGUD2gtKVKdPKo-21">
          <mxGeometry x="30" width="120" height="40" as="geometry" />
        </mxCell>
        <mxCell id="FFHyYveGUD2gtKVKdPKo-23" value="6" style="text;html=1;align=center;verticalAlign=middle;resizable=0;points=[];autosize=1;strokeColor=none;fillColor=none;" vertex="1" parent="FFHyYveGUD2gtKVKdPKo-21">
          <mxGeometry y="5" width="30" height="30" as="geometry" />
        </mxCell>
        <mxCell id="FFHyYveGUD2gtKVKdPKo-24" value="" style="group" vertex="1" connectable="0" parent="FFHyYveGUD2gtKVKdPKo-1">
          <mxGeometry x="90" y="500" width="150" height="40" as="geometry" />
        </mxCell>
        <mxCell id="FFHyYveGUD2gtKVKdPKo-25" value="" style="rounded=0;whiteSpace=wrap;html=1;" vertex="1" parent="FFHyYveGUD2gtKVKdPKo-24">
          <mxGeometry x="30" width="120" height="40" as="geometry" />
        </mxCell>
        <mxCell id="FFHyYveGUD2gtKVKdPKo-26" value="7" style="text;html=1;align=center;verticalAlign=middle;resizable=0;points=[];autosize=1;strokeColor=none;fillColor=none;" vertex="1" parent="FFHyYveGUD2gtKVKdPKo-24">
          <mxGeometry y="5" width="30" height="30" as="geometry" />
        </mxCell>
        <mxCell id="FFHyYveGUD2gtKVKdPKo-27" value="" style="group" vertex="1" connectable="0" parent="FFHyYveGUD2gtKVKdPKo-1">
          <mxGeometry x="90" y="620" width="150" height="40" as="geometry" />
        </mxCell>
        <mxCell id="FFHyYveGUD2gtKVKdPKo-28" value="" style="rounded=0;whiteSpace=wrap;html=1;" vertex="1" parent="FFHyYveGUD2gtKVKdPKo-27">
          <mxGeometry x="30" width="120" height="40" as="geometry" />
        </mxCell>
        <mxCell id="FFHyYveGUD2gtKVKdPKo-29" value="9" style="text;html=1;align=center;verticalAlign=middle;resizable=0;points=[];autosize=1;strokeColor=none;fillColor=none;" vertex="1" parent="FFHyYveGUD2gtKVKdPKo-27">
          <mxGeometry y="5" width="30" height="30" as="geometry" />
        </mxCell>
        <mxCell id="FFHyYveGUD2gtKVKdPKo-30" value="" style="group" vertex="1" connectable="0" parent="FFHyYveGUD2gtKVKdPKo-1">
          <mxGeometry x="90" y="570" width="150" height="40" as="geometry" />
        </mxCell>
        <mxCell id="FFHyYveGUD2gtKVKdPKo-31" value="" style="rounded=0;whiteSpace=wrap;html=1;" vertex="1" parent="FFHyYveGUD2gtKVKdPKo-30">
          <mxGeometry x="30" y="-10" width="120" height="40" as="geometry" />
        </mxCell>
        <mxCell id="FFHyYveGUD2gtKVKdPKo-32" value="8" style="text;html=1;align=center;verticalAlign=middle;resizable=0;points=[];autosize=1;strokeColor=none;fillColor=none;" vertex="1" parent="FFHyYveGUD2gtKVKdPKo-30">
          <mxGeometry y="5" width="30" height="30" as="geometry" />
        </mxCell>
        <mxCell id="FFHyYveGUD2gtKVKdPKo-33" value="Tamanha = 10" style="text;html=1;align=center;verticalAlign=middle;resizable=0;points=[];autosize=1;strokeColor=none;fillColor=none;" vertex="1" parent="FFHyYveGUD2gtKVKdPKo-1">
          <mxGeometry x="40" y="10" width="100" height="30" as="geometry" />
        </mxCell>
        <mxCell id="FFHyYveGUD2gtKVKdPKo-34" value="FÃ³rmula hash: %10 (mod)" style="text;html=1;align=center;verticalAlign=middle;resizable=0;points=[];autosize=1;strokeColor=none;fillColor=none;" vertex="1" parent="FFHyYveGUD2gtKVKdPKo-1">
          <mxGeometry x="160" y="10" width="160" height="30" as="geometry" />
        </mxCell>
        <mxCell id="FFHyYveGUD2gtKVKdPKo-37" style="edgeStyle=orthogonalEdgeStyle;rounded=0;orthogonalLoop=1;jettySize=auto;html=1;entryX=0;entryY=0.5;entryDx=0;entryDy=0;" edge="1" parent="FFHyYveGUD2gtKVKdPKo-1" source="FFHyYveGUD2gtKVKdPKo-18" target="FFHyYveGUD2gtKVKdPKo-38">
          <mxGeometry relative="1" as="geometry" />
        </mxCell>
        <mxCell id="FFHyYveGUD2gtKVKdPKo-38" value="&lt;span style=&quot;text-wrap: nowrap;&quot;&gt;25&lt;/span&gt;" style="whiteSpace=wrap;html=1;aspect=fixed;" vertex="1" parent="FFHyYveGUD2gtKVKdPKo-1">
          <mxGeometry x="350" y="380" width="40" height="40" as="geometry" />
        </mxCell>
      </root>
    </mxGraphModel>
  </diagram>
</mxfile>
